<svg width="61" height="46" viewBox="0 0 61 46" fill="none" xmlns="http://www.w3.org/2000/svg">
<path d="M12.7545 45.75C10.4902 45.75 8.5608 44.9266 6.96648 43.2799C5.37216 41.6332 4.575 39.6404 4.575 37.3016H0V4.29577C0 3.15023 0.415909 2.14789 1.24773 1.28873C2.07955 0.429577 3.05 0 4.15909 0H44.2943V11.9566H51.5727L61 24.9155V37.3016H56.0784C56.0784 39.6404 55.2812 41.6332 53.6869 43.2799C52.0926 44.9266 50.1633 45.75 47.8989 45.75C45.6345 45.75 43.7051 44.9266 42.1108 43.2799C40.5165 41.6332 39.7193 39.6404 39.7193 37.3016H20.9341C20.9341 39.6404 20.1369 41.6332 18.5426 43.2799C16.9483 44.9266 15.0189 45.75 12.7545 45.75ZM12.7545 41.4542C13.8636 41.4542 14.811 41.0485 15.5966 40.2371C16.3822 39.4257 16.775 38.4472 16.775 37.3016C16.775 36.1561 16.3822 35.1776 15.5966 34.3662C14.811 33.5548 13.8636 33.1491 12.7545 33.1491C11.6455 33.1491 10.6981 33.5548 9.9125 34.3662C9.12689 35.1776 8.73409 36.1561 8.73409 37.3016C8.73409 38.4472 9.12689 39.4257 9.9125 40.2371C10.6981 41.0485 11.6455 41.4542 12.7545 41.4542ZM4.15909 33.0059H5.68409C6.4697 31.7171 7.46326 30.6909 8.66477 29.9272C9.86629 29.1635 11.2064 28.7817 12.6852 28.7817C14.164 28.7817 15.5157 29.1755 16.7403 29.963C17.965 30.7506 18.9701 31.7649 19.7557 33.0059H40.1352V4.29577H4.15909V33.0059ZM47.8989 41.4542C49.008 41.4542 49.9553 41.0485 50.7409 40.2371C51.5265 39.4257 51.9193 38.4472 51.9193 37.3016C51.9193 36.1561 51.5265 35.1776 50.7409 34.3662C49.9553 33.5548 49.008 33.1491 47.8989 33.1491C46.7898 33.1491 45.8424 33.5548 45.0568 34.3662C44.2712 35.1776 43.8784 36.1561 43.8784 37.3016C43.8784 38.4472 44.2712 39.4257 45.0568 40.2371C45.8424 41.0485 46.7898 41.4542 47.8989 41.4542ZM44.2943 26.8486H57.1875L49.4932 16.2523H44.2943V26.8486Z" fill="#495057"/>
</svg>
