<?xml version="1.0" encoding="UTF-8"?><svg id="Camada_2" xmlns="http://www.w3.org/2000/svg" viewBox="0 0 175.69 194.48"><defs><style>.cls-1{fill:#002554;}</style></defs><g id="Camada_1-2"><g><path class="cls-1" d="M119.88,82.86c30.77,0,55.81,25.04,55.81,55.81s-25.04,55.81-55.81,55.81c-24.33,0-45.07-15.66-52.69-37.42-3.77,.16-7.21,.21-10.03,.21-17.14,0-57-1.81-57-18.61,0-.05,0-.1,0-.15,0-.05,0-.09,0-.13v-22.42c-.11-.5-.16-1.01-.16-1.54,0-.5,.07-.98,.16-1.45v-18.45c-.11-.5-.16-1.01-.16-1.54,0-.5,.07-.98,.16-1.45v-20.54c-.11-.5-.16-1.01-.16-1.54,0-.88,.18-1.71,.46-2.5-.18-.74-.3-1.5-.3-2.31,0-.05,0-.1,0-.15,0-.05,0-.09,0-.13v-22.42c-.11-.5-.16-1.01-.16-1.54,0-.5,.07-.98,.16-1.45V18.42c-.11-.5-.16-1.01-.16-1.54,0-.91,.18-1.77,.49-2.59,.5-1.72,1.57-3.16,3.01-4.07C15.14,.34,52.23,0,57.16,0s42.02,.34,53.66,10.22c1.43,.9,2.51,2.34,3.01,4.06,.3,.82,.49,1.68,.49,2.6,0,.53-.06,1.04-.16,1.54v20.54c.1,.47,.16,.95,.16,1.45,0,.53-.06,1.04-.16,1.54v22.42s0,.1,0,.15c0,.05,0,.09,0,.13,0,.81-.12,1.57-.3,2.32,.28,.79,.46,1.62,.46,2.5,0,.53-.06,1.04-.16,1.54v12.15c1.88-.19,3.79-.29,5.72-.29ZM6.67,138.2c0,.14,.02,.28,.01,.4,0,.06,0,.12,0,.19,.32,6.26,22.85,11.32,50.49,11.32,2.75,0,5.42-.06,8.06-.16-.75-3.65-1.15-7.42-1.15-11.29,0-.99,.03-1.97,.08-2.94-2.57,.07-4.95,.1-6.98,.1-12.85,0-38.47-1.02-50.49-8.61v10.98Zm0-21.44c0,.14,.02,.28,.01,.41,0,.05,0,.12,0,.18,.32,6.26,22.85,11.32,50.49,11.32,2.67,0,5.28-.06,7.85-.15,1.09-5.92,3.1-11.51,5.91-16.62-5.22,.31-10.03,.4-13.75,.4-12.85,0-38.47-1.02-50.49-8.61v13.07Zm0-52.58c0,.14,.02,.28,.01,.4,0,.06,0,.12,0,.19,.32,6.26,22.85,11.32,50.49,11.32s50.17-5.07,50.49-11.33c0-.13-.01-.25-.01-.36,0-.07,0-.15,.01-.24v-13.07c-12,7.6-37.63,8.62-50.49,8.62s-38.47-1.02-50.49-8.61v13.07ZM57.16,8.24c-28.66,0-46.42,5.32-49.43,8.64,3,3.32,20.76,8.64,49.43,8.64s46.42-5.32,49.42-8.64c-3-3.32-20.76-8.64-49.42-8.64Zm0,25.52c-4.54,0-36.41-.29-50.49-8.07v14.98c0,.14,.02,.28,.01,.4,0,.06,0,.12,0,.19,.32,6.26,22.85,11.33,50.49,11.33s50.17-5.07,50.49-11.33c0-.12-.01-.25-.01-.35,0-.07,0-.15,.01-.24v-14.98c-14.06,7.79-45.95,8.08-50.49,8.08Zm0,52.58c-4.54,0-36.41-.29-50.49-8.07v14.98c0,.14,.02,.28,.01,.41,0,.05,0,.12,0,.18,.32,6.26,22.85,11.32,50.49,11.32,6.63,0,12.96-.3,18.77-.83,7.82-9.98,18.95-17.24,31.73-20.11v-5.97c-14.07,7.79-45.96,8.08-50.49,8.08Zm14.06,52.33c0,26.83,21.83,48.66,48.66,48.66s48.66-21.83,48.66-48.66-21.83-48.66-48.66-48.66-48.66,21.83-48.66,48.66Z"/><path class="cls-1" d="M157.48,138.66c0,20.74-16.87,37.61-37.6,37.61s-37.61-16.87-37.61-37.61,16.87-37.6,37.61-37.6,37.6,16.87,37.6,37.6Zm-70.44,0c0,18.11,14.73,32.84,32.84,32.84s32.84-14.73,32.84-32.84-14.73-32.84-32.84-32.84-32.84,14.73-32.84,32.84Z"/><path class="cls-1" d="M114.37,114.95v4.03c-1.96,.74-3.68,1.87-5.02,3.3-2.1,2.23-3.26,5.2-3.26,8.35,0,1.67,.31,3.24,.94,4.67,.85,1.96,2.31,3.68,4.34,5.12,1.56,1.11,3.5,2.11,6.09,3.13,2.12,.85,3.01,1.56,3.36,1.91,.26,.26,.35,.44,.4,.56,.05,.12,.1,.29,.1,.59,0,.47-.14,.75-.46,1.03-.5,.42-1.36,.65-2.36,.65-2.37,.11-4.57-.89-5.83-1.73l-1.41-.94c-.61-.41-1.38-.51-2.07-.28-.7,.23-1.25,.77-1.49,1.46l-2.22,6.2c-.36,1-.01,2.12,.86,2.74l.82,.59c1.31,.93,2.94,1.68,4.82,2.23,.66,.19,1.32,.35,2,.48v3.53c0,1.32,1.07,2.38,2.38,2.38h6.1c1.31,0,2.38-1.07,2.38-2.38v-4.19c2.19-.83,4.08-2.11,5.53-3.78,2.02-2.31,3.13-5.28,3.12-8.36,0-1.64-.25-3.17-.75-4.55-.75-2.08-2.07-3.91-3.92-5.44-1.55-1.28-3.46-2.37-6-3.42-.08-.04-.16-.07-.25-.1-2.56-1.06-3.6-1.73-4.03-2.11-.16-.14-.27-.26-.31-.35-.01-.02-.03-.12-.03-.31,0-.15,.03-.36,.2-.52,.32-.31,1-.48,1.9-.49,1.13,0,2.17,.16,3.16,.5,.81,.27,1.41,.6,1.9,.88l1.34,.77c.61,.35,1.33,.41,1.99,.18,.66-.24,1.18-.75,1.43-1.4l2.31-6.11c.41-1.09-.02-2.31-1.02-2.9l-.96-.57c-1.6-.94-3.37-1.61-5.29-2.01v-3.35c0-1.32-1.06-2.38-2.38-2.38h-6.04c-1.32,0-2.38,1.07-2.38,2.38Zm4.77,5.78v-3.4h1.27v3.01c0,1.23,.93,2.25,2.15,2.37,1.73,.17,3.31,.6,4.7,1.28l-.61,1.62c-.49-.23-1.03-.47-1.66-.67-1.46-.5-3.04-.75-4.69-.75-2.21,0-3.97,.63-5.21,1.84-1.06,1.03-1.64,2.43-1.64,3.94,0,.91,.16,1.66,.49,2.35,.33,.7,.8,1.3,1.47,1.89,1.06,.95,2.76,1.87,5.49,2.99h0c2.14,.88,3.7,1.75,4.9,2.74,1.18,.98,2.02,2.1,2.47,3.37,.31,.87,.47,1.86,.47,2.94,0,1.93-.69,3.79-1.95,5.23h0c-1.19,1.37-2.88,2.35-4.89,2.84-1.07,.26-1.82,1.22-1.82,2.31v3.56h-1.33v-3.22c0-1.23-.94-2.26-2.17-2.37-1.1-.1-2.2-.3-3.25-.61-1.04-.3-1.97-.68-2.73-1.11l.59-1.66c2.19,1.17,4.82,1.84,7.29,1.84,2.21,.04,4.05-.6,5.46-1.77,1.39-1.19,2.14-2.79,2.16-4.67,0-.9-.16-1.71-.49-2.47-.31-.74-.77-1.41-1.39-2.04-1.09-1.1-2.71-2.08-4.99-2.99-2.24-.88-3.85-1.7-5.09-2.58-1.33-.95-2.23-1.98-2.74-3.15-.36-.82-.54-1.75-.54-2.76,0-1.93,.69-3.73,1.96-5.08,1.12-1.19,2.67-2.05,4.49-2.5,1.07-.26,1.82-1.22,1.82-2.32Z"/></g></g></svg>