<?xml version="1.0" encoding="UTF-8"?><svg id="Camada_2" xmlns="http://www.w3.org/2000/svg" viewBox="0 0 162.32 190.88"><defs><style>.cls-1{fill:#002554;}</style></defs><g id="Camada_1-2"><path class="cls-1" d="M156.4,44.05l-9.28-5.59L86.48,1.41c-1.51-.92-3.24-1.41-5-1.41s-3.47,.48-4.97,1.39L5.92,44.05c-3.65,2.2-5.92,6.22-5.92,10.48v83.54c0,3.32,1.76,6.46,4.6,8.19l70.18,42.83c1.92,1.17,4.13,1.79,6.38,1.79s4.45-.62,6.38-1.79l70.19-42.83c2.84-1.73,4.6-4.87,4.6-8.19V54.53c0-4.26-2.27-8.28-5.92-10.48ZM81.48,7.49l69.74,42.61-2.87,1.46c-.22,.11-.44,.23-.65,.36l-14.84,9.09-10.38-6.34L63.27,18.51l18.21-11.02ZM42.81,30.89l12.94-7.83,69.64,42.53-18.47,11.32L37.7,34.14l5.11-3.25Zm86.3,42.01v14.36l-18.02,10.94v-14.44l13.37-8.12,4.65-2.74Zm-51.99,108.47L7.8,139.08V57.26l42.92,25.92,26.41,16.18v82.02Zm-22.36-104.86l-25.31-15.5-18.1-11.09,18.72-11.33,5.97,3.69h0l17.62,10.89,45.8,28.3-18.13,11.11-26.59-16.06Zm99.76,62.56l-69.32,42.3V99.45l.93-.51c.12-.06,.23-.13,.34-.2l16.82-10.26v6.52c0,3.46,1.88,6.67,4.89,8.37,1.43,.81,3.06,1.23,4.7,1.23,1.76,0,3.48-.48,4.98-1.4l14.42-8.76c2.85-1.73,4.62-4.87,4.62-8.2v-18.26l17.61-10.74v81.82Z"/></g></svg>