<?xml version="1.0" encoding="UTF-8"?><svg id="Camada_2" xmlns="http://www.w3.org/2000/svg" viewBox="0 0 141.5 192.27"><defs><style>.cls-1{fill:#687b4f;}.cls-2{fill:#657a4f;}.cls-3{fill:#20264a;}</style></defs><g id="Camada_1-2"><g><g><path class="cls-2" d="M6.57,149h7.55c3.01,0,4.87,1.64,4.87,4.2,0,1.93-.85,3.53-2.79,4.07v.04c1.86,.36,2.25,1.73,2.4,3.3,.13,1.57,.04,3.32,.94,4.42h-2.38c-.61-.65-.27-2.38-.58-3.95-.22-1.57-.61-2.9-2.67-2.9h-5.21v6.85h-2.13v-16.04Zm6.58,7.39c2,0,3.71-.52,3.71-2.85,0-1.57-.85-2.74-2.85-2.74h-5.3v5.59h4.45Z"/><path class="cls-2" d="M31.55,161.36c-.52,2.56-2.36,3.95-4.96,3.95-3.71,0-5.46-2.56-5.57-6.11,0-3.48,2.29-6.04,5.46-6.04,4.11,0,5.37,3.84,5.26,6.65h-8.69c-.07,2.02,1.08,3.82,3.62,3.82,1.57,0,2.67-.76,3.01-2.27h1.89Zm-1.84-3.23c-.09-1.82-1.46-3.28-3.35-3.28-2,0-3.19,1.5-3.32,3.28h6.67Z"/><path class="cls-2" d="M43.73,164.05c0,3.77-1.73,5.71-5.39,5.71-2.18,0-4.69-.88-4.81-3.41h1.91c.09,1.39,1.75,1.89,3.01,1.89,2.49,0,3.48-1.8,3.48-4.4v-.76h-.04c-.63,1.42-2.16,2.11-3.62,2.11-3.46,0-5.19-2.72-5.19-5.88,0-2.74,1.35-6.13,5.37-6.13,1.46,0,2.76,.65,3.46,1.93h.02v-1.66h1.8v10.62Zm-1.89-5.05c0-2.04-.9-4.16-3.3-4.16s-3.44,2-3.44,4.22c0,2.09,.76,4.42,3.28,4.42s3.46-2.31,3.46-4.49Z"/><path class="cls-2" d="M56.51,161.36c-.52,2.56-2.36,3.95-4.96,3.95-3.71,0-5.46-2.56-5.57-6.11,0-3.48,2.29-6.04,5.46-6.04,4.11,0,5.37,3.84,5.26,6.65h-8.69c-.07,2.02,1.08,3.82,3.62,3.82,1.57,0,2.67-.76,3.01-2.27h1.89Zm-1.84-3.23c-.09-1.82-1.46-3.28-3.35-3.28-2,0-3.19,1.5-3.32,3.28h6.67Z"/><path class="cls-2" d="M58.66,153.43h1.8v1.84h.04c.81-1.44,2.11-2.11,3.77-2.11,3.05,0,4,1.75,4,4.25v7.64h-1.91v-7.86c0-1.42-.9-2.34-2.36-2.34-2.31,0-3.44,1.55-3.44,3.64v6.56h-1.91v-11.61Z"/><path class="cls-2" d="M81.06,161.36c-.52,2.56-2.36,3.95-4.96,3.95-3.71,0-5.46-2.56-5.57-6.11,0-3.48,2.29-6.04,5.46-6.04,4.11,0,5.37,3.84,5.26,6.65h-8.69c-.07,2.02,1.08,3.82,3.62,3.82,1.57,0,2.67-.76,3.01-2.27h1.89Zm-1.84-3.23c-.09-1.82-1.46-3.28-3.35-3.28-2,0-3.19,1.5-3.32,3.28h6.67Z"/><path class="cls-2" d="M83.15,153.43h1.8v2.45h.04c.92-1.86,2.2-2.79,4.27-2.72v2.02c-3.08,0-4.2,1.75-4.2,4.69v5.17h-1.91v-11.61Z"/><path class="cls-2" d="M100.98,165c-.34,.2-.76,.31-1.37,.31-.99,0-1.62-.54-1.62-1.8-1.06,1.24-2.47,1.8-4.09,1.8-2.11,0-3.84-.94-3.84-3.26,0-2.63,1.95-3.19,3.93-3.57,2.11-.4,3.91-.27,3.91-1.71,0-1.66-1.37-1.93-2.58-1.93-1.62,0-2.81,.49-2.9,2.2h-1.91c.11-2.88,2.34-3.89,4.92-3.89,2.09,0,4.36,.47,4.36,3.19v5.97c0,.9,0,1.3,.61,1.3,.16,0,.34-.02,.58-.11v1.48Zm-3.1-5.95c-.74,.54-2.18,.56-3.46,.79-1.26,.22-2.34,.67-2.34,2.09,0,1.26,1.08,1.71,2.25,1.71,2.52,0,3.55-1.57,3.55-2.63v-1.95Z"/><path class="cls-2" d="M105.41,153.43h2.31v1.68h-2.31v7.21c0,.88,.25,1.03,1.44,1.03h.88v1.68h-1.46c-1.98,0-2.76-.4-2.76-2.54v-7.39h-1.98v-1.68h1.98v-3.48h1.91v3.48Z"/><path class="cls-2" d="M111.86,151.34h-1.91v-2.34h1.91v2.34Zm-1.91,2.09h1.91v11.61h-1.91v-11.61Z"/><path class="cls-2" d="M120.05,165.04h-2.04l-4.31-11.61h2.13l3.26,9.68h.04l3.17-9.68h2l-4.25,11.61Z"/><path class="cls-2" d="M135.96,161.36c-.52,2.56-2.36,3.95-4.96,3.95-3.71,0-5.46-2.56-5.57-6.11,0-3.48,2.29-6.04,5.46-6.04,4.11,0,5.37,3.84,5.26,6.65h-8.69c-.07,2.02,1.08,3.82,3.62,3.82,1.57,0,2.67-.76,3.01-2.27h1.89Zm-1.84-3.23c-.09-1.82-1.46-3.28-3.35-3.28-2,0-3.19,1.5-3.32,3.28h6.67Z"/><path class="cls-2" d="M32.18,188.31c-.52,2.56-2.36,3.95-4.96,3.95-3.71,0-5.46-2.56-5.57-6.11,0-3.48,2.29-6.04,5.46-6.04,4.11,0,5.37,3.84,5.26,6.65h-8.69c-.07,2.02,1.08,3.82,3.62,3.82,1.57,0,2.67-.76,3.01-2.27h1.89Zm-1.84-3.23c-.09-1.82-1.46-3.28-3.35-3.28-2,0-3.19,1.5-3.32,3.28h6.67Z"/><path class="cls-2" d="M37.46,185.89l-4.04-5.5h2.45l2.79,4.07,2.9-4.07h2.29l-4,5.35,4.49,6.27h-2.45l-3.23-4.81-3.23,4.81h-2.31l4.36-6.11Z"/><path class="cls-2" d="M48.62,180.38h2.31v1.68h-2.31v7.21c0,.88,.25,1.03,1.44,1.03h.88v1.68h-1.46c-1.98,0-2.76-.4-2.76-2.54v-7.39h-1.98v-1.68h1.98v-3.48h1.91v3.48Z"/><path class="cls-2" d="M52.98,180.38h1.8v2.45h.04c.92-1.86,2.2-2.79,4.27-2.72v2.02c-3.08,0-4.2,1.75-4.2,4.69v5.17h-1.91v-11.61Z"/><path class="cls-2" d="M70.82,191.95c-.34,.2-.76,.31-1.37,.31-.99,0-1.62-.54-1.62-1.8-1.06,1.24-2.47,1.8-4.09,1.8-2.11,0-3.84-.94-3.84-3.26,0-2.63,1.95-3.19,3.93-3.57,2.11-.4,3.91-.27,3.91-1.71,0-1.66-1.37-1.93-2.58-1.93-1.62,0-2.81,.49-2.9,2.2h-1.91c.11-2.88,2.34-3.89,4.92-3.89,2.09,0,4.36,.47,4.36,3.19v5.97c0,.9,0,1.3,.61,1.3,.16,0,.34-.02,.58-.11v1.48Zm-3.1-5.95c-.74,.54-2.18,.56-3.46,.79-1.26,.22-2.34,.67-2.34,2.09,0,1.26,1.08,1.71,2.25,1.71,2.52,0,3.55-1.57,3.55-2.63v-1.95Z"/><path class="cls-2" d="M80.48,184.11c-.29-1.46-1.3-2.31-2.88-2.31-2.76,0-3.62,2.18-3.62,4.54,0,2.13,.97,4.25,3.39,4.25,1.84,0,2.94-1.08,3.19-2.83h1.95c-.43,2.83-2.2,4.51-5.12,4.51-3.55,0-5.44-2.47-5.44-5.93s1.8-6.22,5.48-6.22c2.63,0,4.74,1.24,5.01,4h-1.98Z"/><path class="cls-2" d="M87.31,180.38h2.31v1.68h-2.31v7.21c0,.88,.25,1.03,1.44,1.03h.88v1.68h-1.46c-1.98,0-2.76-.4-2.76-2.54v-7.39h-1.98v-1.68h1.98v-3.48h1.91v3.48Z"/><path class="cls-2" d="M93.75,178.29h-1.91v-2.34h1.91v2.34Zm-1.91,2.09h1.91v11.61h-1.91v-11.61Z"/><path class="cls-2" d="M101.73,180.11c3.68,0,5.64,2.67,5.64,6.09s-1.95,6.06-5.64,6.06-5.64-2.67-5.64-6.06,1.95-6.09,5.64-6.09Zm0,10.47c2,0,3.62-1.57,3.62-4.38s-1.62-4.4-3.62-4.4-3.62,1.57-3.62,4.4,1.62,4.38,3.62,4.38Z"/><path class="cls-2" d="M109.61,180.38h1.8v1.84h.04c.81-1.44,2.11-2.11,3.77-2.11,3.05,0,4,1.75,4,4.25v7.64h-1.91v-7.86c0-1.42-.9-2.34-2.36-2.34-2.31,0-3.44,1.55-3.44,3.64v6.56h-1.91v-11.61Z"/></g><g><path class="cls-1" d="M72.6,68.36c.23-8.86,4.32-15.91,9.4-20.87,1.16,1.28,2.86,2.27,5.03,2.83,1.34,.34,2.75,.5,4.18,.5,4.34-.01,8.89-1.58,12.41-4.4,14.63-11.74,16.92-14.19,16.93-16.24,.03-.49-.15-.95-.55-1.39-1.43-1.51-4.7-1.69-23.61-.03-5.99,.52-11.75,3.91-14.66,8.63-1.69,2.73-2.12,5.46-1.21,7.68l.24,.58s.05,.08,.07,.12c-4.21,4.02-7.81,9.39-9.42,15.96-1.86-7.77-5.15-13.82-9.82-17.98-.11-.1-.75-.58-1.92-1.46,1.15-1.94,1.3-4.53,.32-7.38-1.8-5.28-6.7-9.88-12.47-11.71-18.07-5.75-21.42-6.33-23.17-5.2-.43,.25-.72,.65-.87,1.22-.49,2.02,1.15,4.86,12.99,19.75,3.66,4.6,9.52,7.52,15.03,7.5,.13,0,.27,0,.4,0,2.83-.09,5.08-1,6.54-2.52,.96,.71,1.65,1.24,1.77,1.33,4.45,3.97,7.59,9.84,9.33,17.45,.3,1.34,.82,5.01,.86,14.58,0,0,0,.01,0,.02-.03,8.12,.05,19.14,.26,32.57,0,.61,.01,.97,.02,.98-.03,.56,.41,1.05,.98,1.07,.02,0,.04,0,.06,0,.55,0,1-.43,1.03-.98t-.01-1.11c-.12-8.18-.2-15.57-.24-21.94,.15-.12,.28-.26,.34-.45,1.39-4.05,3.38-7.36,5.91-9.96,.73,.6,1.62,1.11,2.69,1.48,1.34,.46,2.8,.68,4.29,.68,2.94,0,5.99-.91,8.49-2.6,11.85-8.01,13.56-9.59,13.67-11.27,.02-.49-.12-.9-.41-1.22-1.06-1.27-3.48-1.6-17.68-1.52-4.55,.02-9.11,2.23-11.61,5.62-1.47,1.99-1.97,4.07-1.42,5.85l.14,.44c.11,.34,.29,.66,.47,.98-1.94,1.97-3.59,4.32-4.92,7.05-.01-6.15,.03-11.12,.12-14.62Zm9.85-24.07c-.64-1.58-.26-3.7,1.06-5.84,1.96-3.17,6.56-7.09,13.07-7.66,7.88-.69,14-1.15,17.76-1.16,2.35,0,3.78,.15,4.14,.54-.04,1.42-6.22,6.66-16.17,14.65-5.08,4.08-11.13,4.44-14.77,3.51-1.76-.45-3.15-1.24-4.05-2.23,2.44-2.12,5.04-3.78,7.51-4.94,.51-.24,.73-.85,.49-1.36-.24-.51-.86-.73-1.38-.49-2.52,1.18-5.16,2.87-7.67,4.99h0Zm-30.6,.09c-3.79,.11-9.66-1.58-13.74-6.71-8.02-10.1-12.93-16.63-12.6-17.98h0c1.23-.76,9.1,1.51,21.4,5.43,6.28,2,9.93,6.86,11.14,10.42,.73,2.14,.69,4.08-.03,5.48-1.17-.86-2.6-1.93-4.37-3.24-1.62-1.2-3.15-2.34-3.28-2.44-.45-.35-1.1-.28-1.45,.17-.35,.44-.28,1.09,.17,1.44,.14,.11,1.24,.92,3.32,2.47,1.27,.94,2.92,2.17,4.39,3.25-1.1,1.01-2.82,1.64-4.95,1.7Zm27.05,29.94l-.14-.44c-.35-1.13,.05-2.6,1.11-4.03,1.61-2.18,5.19-4.75,9.95-4.77,5.19-.03,14.71-.09,15.97,.7-.59,1.36-8.45,6.67-12.74,9.57-3.94,2.66-8.35,2.57-10.93,1.67-.73-.25-1.35-.59-1.86-.97,1.84-1.56,3.91-2.79,6.24-3.68,.53-.21,.8-.8,.59-1.32-.21-.53-.8-.79-1.34-.59-2.54,.97-4.8,2.31-6.8,3.99-.01-.04-.05-.08-.06-.12Z"/><path class="cls-3" d="M126.66,24.23C114.11,8.97,94.82-.07,74.97,0c-.15,0-.29,0-.43,0-.57,0-1.03,.47-1.03,1.04,0,.57,.47,1.02,1.04,1.02h0c19.37-.2,38.24,8.58,50.49,23.47,12.3,14.96,17.11,35.17,12.86,54.05-4.15,18.45-16.85,34.53-33.97,43.02-17.65,8.75-38.79,8.91-56.56,.42-17.4-8.32-30.37-24.37-34.71-42.95-.45-1.92-.78-3.89-1.05-5.86l12.65,11.91c.42,.39,1.07,.37,1.46-.03,.39-.41,.38-1.06-.04-1.45l-14.89-14.02c-.23-.22-.56-.32-.88-.27-.32,.05-.6,.25-.75,.53L.12,87.85c-.27,.5-.07,1.12,.43,1.38,.15,.08,.32,.12,.49,.12,.37,0,.73-.2,.91-.55l7.63-14.3c.28,2.02,.62,4.04,1.08,6.02,4.48,19.18,17.87,35.76,35.83,44.33,9.1,4.35,19.04,6.5,28.98,6.46,10.11-.04,20.22-2.34,29.4-6.89,17.67-8.76,30.78-25.37,35.06-44.41,4.39-19.49-.57-40.35-13.27-55.79Z"/></g></g></g></svg>