<?xml version="1.0" encoding="UTF-8"?><svg id="Camada_2" xmlns="http://www.w3.org/2000/svg" viewBox="0 0 147.58 170.08"><defs><style>.cls-1{fill:#687b4f;}.cls-2{fill:#657a4f;}.cls-3{fill:#20264a;}</style></defs><g id="Camada_1-2"><g><g><path class="cls-2" d="M6.27,149.6h2.36l6.27,16.04h-2.36l-1.75-4.83H4l-1.8,4.83H0l6.27-16.04Zm-1.59,9.41h5.44l-2.67-7.48h-.04l-2.72,7.48Z"/><path class="cls-2" d="M18.8,154.02h2.31v1.68h-2.31v7.21c0,.88,.25,1.03,1.44,1.03h.88v1.68h-1.46c-1.98,0-2.76-.4-2.76-2.54v-7.39h-1.98v-1.68h1.98v-3.48h1.91v3.48Z"/><path class="cls-2" d="M28.23,153.75c3.68,0,5.64,2.67,5.64,6.09s-1.95,6.06-5.64,6.06-5.64-2.67-5.64-6.06,1.95-6.09,5.64-6.09Zm0,10.47c2,0,3.62-1.57,3.62-4.38s-1.62-4.4-3.62-4.4-3.62,1.57-3.62,4.4,1.62,4.38,3.62,4.38Z"/><path class="cls-2" d="M39.24,159.53l-4.04-5.5h2.45l2.79,4.07,2.9-4.07h2.29l-4,5.35,4.49,6.27h-2.45l-3.23-4.81-3.23,4.81h-2.31l4.36-6.11Z"/><path class="cls-2" d="M49.78,151.93h-1.91v-2.34h1.91v2.34Zm-1.91,2.09h1.91v11.61h-1.91v-11.61Z"/><path class="cls-2" d="M60.62,157.75c-.29-1.46-1.3-2.31-2.88-2.31-2.76,0-3.62,2.18-3.62,4.54,0,2.13,.97,4.25,3.39,4.25,1.84,0,2.94-1.08,3.19-2.83h1.95c-.43,2.83-2.2,4.51-5.12,4.51-3.55,0-5.44-2.47-5.44-5.93s1.8-6.22,5.48-6.22c2.63,0,4.74,1.24,5.01,4h-1.98Z"/><path class="cls-2" d="M71.12,154.02h1.91v1.57h.04c.63-1.28,2.11-1.84,3.71-1.84,3.57,0,5.35,2.83,5.35,6.11s-1.75,6.04-5.3,6.04c-1.19,0-2.9-.45-3.75-1.82h-.04v6h-1.91v-16.06Zm5.39,1.42c-2.56,0-3.55,2.2-3.55,4.38,0,2.29,1.03,4.4,3.66,4.4s3.48-2.22,3.48-4.49-1.12-4.29-3.59-4.29Z"/><path class="cls-2" d="M84.3,154.02h1.8v2.45h.04c.92-1.86,2.2-2.79,4.27-2.72v2.02c-3.08,0-4.2,1.75-4.2,4.69v5.17h-1.91v-11.61Z"/><path class="cls-2" d="M96.86,153.75c3.68,0,5.64,2.67,5.64,6.09s-1.95,6.06-5.64,6.06-5.64-2.67-5.64-6.06,1.95-6.09,5.64-6.09Zm0,10.47c2,0,3.62-1.57,3.62-4.38s-1.62-4.4-3.62-4.4-3.62,1.57-3.62,4.4,1.62,4.38,3.62,4.38Z"/><path class="cls-2" d="M115.12,165.64h-1.91v-1.57h-.04c-.63,1.28-2.11,1.84-3.71,1.84-3.57,0-5.35-2.83-5.35-6.11s1.75-6.04,5.3-6.04c1.19,0,2.9,.45,3.75,1.82h.04v-5.97h1.91v16.04Zm-5.39-1.42c2.56,0,3.55-2.2,3.55-4.38,0-2.29-1.03-4.4-3.66-4.4s-3.48,2.22-3.48,4.49,1.12,4.29,3.59,4.29Z"/><path class="cls-2" d="M127.68,165.64h-1.8v-1.84h-.04c-.81,1.44-2.11,2.11-3.77,2.11-3.05,0-4-1.75-4-4.25v-7.64h1.91v7.86c0,1.42,.9,2.34,2.36,2.34,2.31,0,3.44-1.55,3.44-3.64v-6.56h1.91v11.61Z"/><path class="cls-2" d="M138.44,157.75c-.29-1.46-1.3-2.31-2.88-2.31-2.76,0-3.62,2.18-3.62,4.54,0,2.13,.97,4.25,3.39,4.25,1.84,0,2.94-1.08,3.19-2.83h1.95c-.43,2.83-2.2,4.51-5.12,4.51-3.55,0-5.44-2.47-5.44-5.93s1.8-6.22,5.48-6.22c2.63,0,4.74,1.24,5.01,4h-1.98Z"/><path class="cls-2" d="M145.27,154.02h2.31v1.68h-2.31v7.21c0,.88,.25,1.03,1.44,1.03h.88v1.68h-1.46c-1.98,0-2.76-.4-2.76-2.54v-7.39h-1.98v-1.68h1.98v-3.48h1.91v3.48Z"/></g><g><g><path class="cls-1" d="M55.54,83.17c.54,0,1-.43,1.03-.98t0-1.17c-.2-19.37-.22-32.74-.05-38.67,.18-6.57,3.16-11.82,6.88-15.53,.9,.92,2.15,1.65,3.73,2.06,1.03,.27,2.11,.4,3.21,.39,3.33,0,6.83-1.21,9.53-3.39,11.21-9.04,12.89-10.85,12.9-12.53,.02-.44-.13-.85-.48-1.24-1.16-1.24-3.53-1.4-18.02-.15-4.6,.4-9.02,3.02-11.27,6.67-1.32,2.15-1.66,4.31-.95,6.08l.15,.38c-4.17,4.06-7.56,9.87-7.76,17.2-.07,2.71-.11,6.97-.11,12.62-1.64-3.63-3.79-7.42-6.66-10.77,.26-.37,.51-.74,.68-1.15l.22-.55c.87-2.11,.47-4.7-1.1-7.31-2.71-4.48-8.09-7.72-13.71-8.25-17.54-1.65-20.71-1.51-22.09-.11-.36,.33-.55,.77-.57,1.34-.04,1.98,2.02,4.25,15.77,15.52,3.33,2.73,7.67,4.24,11.8,4.23,1.28,0,2.54-.15,3.74-.46,1.52-.38,2.8-.98,3.82-1.76,3.83,4.54,6.38,9.97,8.01,14.53,.02,.05,.06,.07,.09,.11,.02,5.84,.07,12.78,.15,20.74,0,.65,0,1.03,.01,1.04-.03,.57,.4,1.06,.98,1.09,.02,0,.04,0,.06,0Zm9.22-63.45c1.46-2.37,4.86-5.28,9.68-5.69,3.78-.33,9.84-.85,13.43-.86,1.41,0,2.44,.07,2.8,.27-.45,1.42-7.99,7.51-12.1,10.83-3.77,3.04-8.24,3.3-10.92,2.6-1.17-.31-2.09-.82-2.73-1.45,1.77-1.5,3.63-2.69,5.4-3.53,.52-.24,.74-.86,.5-1.38s-.86-.74-1.38-.5c-1.81,.86-3.71,2.06-5.53,3.56-.28-1.09,0-2.46,.87-3.86Zm-22.83,25.7c-3.39,.85-9.02,.48-13.73-3.38-9.14-7.49-14.85-12.43-15.01-13.83,1.05-.88,8.59-.37,20.39,.75,6.06,.57,10.32,4.27,12.13,7.26,1.21,2,1.56,3.99,.95,5.47l-.22,.53c-.06,.14-.16,.25-.24,.39-2.23-2.3-4.78-4.33-7.8-5.8-.51-.25-1.13-.04-1.38,.48-.25,.51-.04,1.13,.48,1.38,2.83,1.37,5.22,3.3,7.32,5.48-.77,.55-1.75,.99-2.9,1.28Z"/><path class="cls-1" d="M106.71,83.91c-.07-.12-.17-.22-.28-.3l-18.2-12.89,.32-22.96c3-.16,4.57-2.52,4.57-4.85,0-1.41-.56-2.73-1.57-3.71-.78-.76-2.23-1.67-4.62-1.66l-10.77,.02c-2.4,0-3.84,.91-4.62,1.67-1.01,.98-1.56,2.3-1.56,3.72,0,2.32,1.58,4.68,4.58,4.83l.39,22.95-18.16,12.94c-.11,.08-.21,.18-.28,.3-2.89,4.67-2,10.57,2.09,14.04,1.36,1.15,2.82,1.87,4.35,2.14,.12,.02,.24,.03,.36,.03l36.64-.06c.12,0,.24-.01,.36-.03,1.53-.28,2.99-1.01,4.35-2.15,4.09-3.48,4.95-9.39,2.04-14.05Zm-3.39,12.47c-1.07,.91-2.2,1.48-3.37,1.69l-36.43,.06h-.2c-1.17-.21-2.31-.77-3.38-1.68-3.26-2.76-3.99-7.44-1.77-11.2l18.3-13.05c.1-.07,.18-.15,.25-.25,.21-.29,.31-.64,.31-.99l-.4-23.51c-.01-.95-.79-1.72-1.74-1.71-1.94,0-2.84-1.44-2.84-2.78,0-.85,.33-1.64,.93-2.23,.73-.71,1.83-1.09,3.18-1.09l10.77-.02c1.35,0,2.45,.37,3.19,1.08,.61,.59,.94,1.38,.94,2.23,0,1.34-.88,2.78-2.83,2.78-.95,0-1.72,.77-1.74,1.72l-.33,23.52c0,.35,.1,.7,.31,.99,.07,.1,.15,.18,.25,.25l18.34,12.99c2.23,3.75,1.51,8.44-1.74,11.2Z"/></g><path class="cls-3" d="M130.13,24.55C117.62,9.12,98.35-.03,78.51,0h-.43c-.57,0-1.03,.47-1.03,1.05,0,.57,.48,1.03,1.05,1.03,19.37-.16,38.21,8.73,50.42,23.79,12.27,15.13,17.03,35.53,12.74,54.57-4.19,18.6-16.92,34.8-34.05,43.34-17.66,8.79-38.8,8.9-56.54,.3-17.37-8.42-30.31-24.65-34.61-43.41-.44-1.94-.77-3.92-1.04-5.91l12.62,12.04c.41,.4,1.07,.38,1.46-.03s.38-1.07-.03-1.47l-14.86-14.18c-.23-.22-.56-.32-.88-.27s-.59,.25-.75,.54L3.5,88.49c-.27,.51-.07,1.13,.43,1.4,.16,.08,.32,.12,.49,.12,.37,0,.73-.2,.91-.55l7.66-14.41c.27,2.04,.61,4.08,1.07,6.07,4.44,19.36,17.79,36.12,35.72,44.81,9.08,4.41,19.02,6.6,28.96,6.58,10.11-.02,20.21-2.32,29.4-6.89,17.68-8.8,30.82-25.53,35.14-44.73,4.43-19.66-.49-40.71-13.15-56.32Z"/></g></g></g></svg>