<?xml version="1.0" encoding="UTF-8"?><svg id="Camada_2" xmlns="http://www.w3.org/2000/svg" viewBox="0 0 149.22 165.89"><defs><style>.cls-1{fill:#687b4f;}.cls-2{fill:#657a4f;}.cls-3{fill:#20264a;}</style></defs><g id="Camada_1-2"><g><g><path class="cls-2" d="M0,149.58H7.55c3.01,0,4.87,1.64,4.87,4.2,0,1.93-.85,3.53-2.79,4.07v.04c1.86,.36,2.25,1.73,2.4,3.3,.13,1.57,.04,3.32,.94,4.42h-2.38c-.61-.65-.27-2.38-.58-3.95-.22-1.57-.61-2.9-2.67-2.9H2.13v6.85H0v-16.04Zm6.58,7.39c2,0,3.71-.52,3.71-2.85,0-1.57-.85-2.74-2.85-2.74H2.13v5.59H6.58Z"/><path class="cls-2" d="M24.98,161.94c-.52,2.56-2.36,3.95-4.96,3.95-3.71,0-5.46-2.56-5.57-6.11,0-3.48,2.29-6.04,5.46-6.04,4.11,0,5.37,3.84,5.26,6.65h-8.69c-.07,2.02,1.08,3.82,3.62,3.82,1.57,0,2.67-.76,3.01-2.27h1.89Zm-1.84-3.23c-.09-1.82-1.46-3.28-3.35-3.28-2,0-3.19,1.5-3.32,3.28h6.67Z"/><path class="cls-2" d="M36.75,165.62h-1.8v-1.84h-.04c-.81,1.44-2.11,2.11-3.77,2.11-3.05,0-4-1.75-4-4.25v-7.64h1.91v7.86c0,1.42,.9,2.34,2.36,2.34,2.31,0,3.44-1.55,3.44-3.64v-6.56h1.91v11.61Z"/><path class="cls-2" d="M40.79,161.96c.07,1.71,1.55,2.25,3.12,2.25,1.19,0,2.81-.27,2.81-1.73s-1.89-1.73-3.8-2.16c-1.89-.43-3.8-1.06-3.8-3.28,0-2.34,2.31-3.3,4.33-3.3,2.56,0,4.6,.81,4.76,3.64h-1.91c-.13-1.48-1.44-1.95-2.7-1.95-1.15,0-2.47,.31-2.47,1.48,0,1.37,2.02,1.59,3.8,2.02,1.91,.43,3.8,1.06,3.8,3.3,0,2.76-2.58,3.66-4.94,3.66-2.61,0-4.81-1.06-4.92-3.93h1.91Z"/><path class="cls-2" d="M60.76,161.94c-.52,2.56-2.36,3.95-4.96,3.95-3.71,0-5.46-2.56-5.57-6.11,0-3.48,2.29-6.04,5.46-6.04,4.11,0,5.37,3.84,5.26,6.65h-8.69c-.07,2.02,1.08,3.82,3.62,3.82,1.57,0,2.67-.76,3.01-2.27h1.89Zm-1.84-3.23c-.09-1.82-1.46-3.28-3.35-3.28-2,0-3.19,1.5-3.32,3.28h6.67Z"/><path class="cls-2" d="M74.17,153.74c3.68,0,5.64,2.67,5.64,6.09s-1.95,6.06-5.64,6.06-5.64-2.67-5.64-6.06,1.95-6.09,5.64-6.09Zm0,10.47c2,0,3.62-1.57,3.62-4.38s-1.62-4.4-3.62-4.4-3.62,1.57-3.62,4.4,1.62,4.38,3.62,4.38Z"/><path class="cls-2" d="M82.84,155.69h-1.95v-1.68h1.95v-1.73c0-1.89,1.12-2.88,3.21-2.88,.36,0,.88,.07,1.24,.18v1.66c-.34-.11-.74-.16-1.08-.16-.92,0-1.46,.29-1.46,1.3v1.62h2.25v1.68h-2.25v9.93h-1.91v-9.93Z"/><path class="cls-2" d="M106.45,165.62h-2.02l-2.36-9.23h-.04l-2.34,9.23h-2.07l-3.73-11.61h2.11l2.63,9.5h.04l2.34-9.5h2.09l2.43,9.5h.04l2.61-9.5h1.98l-3.71,11.61Z"/><path class="cls-2" d="M122.26,165.57c-.34,.2-.76,.31-1.37,.31-.99,0-1.62-.54-1.62-1.8-1.06,1.24-2.47,1.8-4.09,1.8-2.11,0-3.84-.94-3.84-3.26,0-2.63,1.95-3.19,3.93-3.57,2.11-.4,3.91-.27,3.91-1.71,0-1.66-1.37-1.93-2.58-1.93-1.62,0-2.81,.49-2.9,2.2h-1.91c.11-2.88,2.34-3.89,4.92-3.89,2.09,0,4.36,.47,4.36,3.19v5.97c0,.9,0,1.3,.61,1.3,.16,0,.34-.02,.58-.11v1.48Zm-3.1-5.95c-.74,.54-2.18,.56-3.46,.79-1.26,.22-2.34,.67-2.34,2.09,0,1.26,1.08,1.71,2.25,1.71,2.52,0,3.55-1.57,3.55-2.63v-1.95Z"/><path class="cls-2" d="M126.69,154.01h2.31v1.68h-2.31v7.21c0,.88,.25,1.03,1.44,1.03h.88v1.68h-1.46c-1.98,0-2.76-.4-2.76-2.54v-7.39h-1.98v-1.68h1.98v-3.48h1.91v3.48Z"/><path class="cls-2" d="M141.02,161.94c-.52,2.56-2.36,3.95-4.96,3.95-3.71,0-5.46-2.56-5.57-6.11,0-3.48,2.29-6.04,5.46-6.04,4.11,0,5.37,3.84,5.26,6.65h-8.69c-.07,2.02,1.08,3.82,3.62,3.82,1.57,0,2.67-.76,3.01-2.27h1.89Zm-1.84-3.23c-.09-1.82-1.46-3.28-3.35-3.28-2,0-3.19,1.5-3.32,3.28h6.67Z"/><path class="cls-2" d="M143.11,154.01h1.8v2.45h.04c.92-1.86,2.2-2.79,4.27-2.72v2.02c-3.08,0-4.2,1.75-4.2,4.69v5.17h-1.91v-11.61Z"/></g><g><g><path class="cls-1" d="M93.79,86.51c-.56,0-1.05,.44-1.06,1.01-.16,6.68-2.24,15.73-11.23,20.88-4.52,2.57-11.88,1.93-15.64-.24-11.6-6.68-11.82-19.71-10.92-26.88,.78-6.23,2.66-12.65,5.9-20.19,2.76-6.4,10.36-21.42,12.96-26.41,1.5,3,4.71,9.59,7.84,16.19,.24,.52,.86,.74,1.38,.49,.52-.24,.74-.86,.49-1.38-1.84-3.9-4-8.36-5.9-12.26-.83-1.7-1.54-3.13-2.04-4.14-.35-.7-.59-1.19-.79-1.51l-.2-.61-.45-.02c-.09-.02-.19-.02-.31-.01-.66-.03-.71,.06-2.68,3.89-1.15,2.24-2.62,5.12-4.02,7.92-2.24,4.47-6.28,12.64-8.17,17.03-3.32,7.73-5.25,14.32-6.06,20.75-2.25,17.89,6.52,25.8,11.94,28.92,2.36,1.36,5.84,2.19,9.35,2.19,2.97,0,5.96-.59,8.35-1.94,9.82-5.64,12.09-15.42,12.27-22.63,.02-.57-.44-1.05-1.01-1.06Z"/><path class="cls-1" d="M110.44,63.52c-.56-4.44-1.88-8.98-4.17-14.31-1.31-3.03-4.02-8.67-5.51-11.76-1.02-2.11-1.98-4.06-2.68-5.48-1.41-2.84-1.45-2.94-2.12-2.88-.65-.03-.68,.06-2.11,2.84-.79,1.53-1.79,3.51-2.75,5.43-1.54,3.07-4.31,8.67-5.61,11.69-2.29,5.32-3.62,9.87-4.17,14.3-1.56,12.44,4.56,17.96,8.34,20.14,1.66,.96,4.1,1.54,6.57,1.54,2.09,0,4.2-.41,5.88-1.36,3.79-2.18,9.9-7.69,8.34-20.14Zm-9.37,18.35c-2.92,1.65-7.89,1.27-10.4-.17-7.78-4.48-7.93-13.26-7.32-18.09,.53-4.24,1.81-8.61,4.02-13.74,1.8-4.18,6.58-13.66,8.57-17.51,1.96,3.94,6.68,13.64,8.42,17.67,2.21,5.14,3.48,9.51,4.02,13.74,.61,4.84,.46,13.62-7.31,18.09Z"/></g><path class="cls-3" d="M129.8,24.63C117.32,9.19,98.07,0,78.24,0h-.43c-.57,0-1.03,.47-1.03,1.04,0,.57,.47,1.03,1.04,1.03h.42c19.21,0,37.86,8.9,49.95,23.86,12.24,15.14,16.97,35.54,12.66,54.57-4.22,18.6-16.97,34.77-34.11,43.28-17.66,8.76-38.8,8.84-56.52,.21-17.36-8.45-30.27-24.69-34.53-43.46-.44-1.94-.77-3.93-1.03-5.91l12.6,12.06c.42,.39,1.07,.38,1.47-.03,.4-.41,.38-1.07-.03-1.46l-14.83-14.2c-.23-.23-.56-.33-.88-.28-.32,.05-.6,.25-.75,.54L3.1,88.35c-.27,.5-.08,1.13,.43,1.4,.15,.08,.32,.12,.48,.12,.37,0,.73-.2,.91-.55l7.68-14.4c.27,2.04,.6,4.08,1.05,6.07,4.41,19.37,17.73,36.14,35.65,44.86,9.07,4.42,19.01,6.62,28.94,6.62s20.21-2.28,29.41-6.85c17.69-8.77,30.85-25.47,35.2-44.67,4.46-19.64-.43-40.7-13.06-56.33Z"/><path class="cls-1" d="M15.68,9.38h-4.62v-1.41c3.24-.16,4.75-.9,5.13-4.17h1.57V25.91h-2.09V9.38Z"/><path class="cls-1" d="M35.83,14.9c0-5.91-2.08-9.69-5.97-9.69s-6,3.66-6,9.69,2.09,9.66,6,9.66,5.97-3.63,5.97-9.66m-14.12,0c0-7.12,3.18-11.46,8.15-11.46s8.12,4.27,8.12,11.46-2.89,11.46-8.15,11.46-8.12-4.46-8.12-11.46"/><path class="cls-1" d="M54.53,14.9c0-5.91-2.08-9.69-5.97-9.69s-6,3.66-6,9.69,2.09,9.66,6,9.66,5.97-3.63,5.97-9.66m-14.12,0c0-7.12,3.18-11.46,8.15-11.46s8.12,4.27,8.12,11.46-2.89,11.46-8.15,11.46-8.12-4.46-8.12-11.46"/><path class="cls-1" d="M74.34,15.99c0-2.3-.99-3.58-2.3-3.58s-2.3,1.24-2.3,3.58,.99,3.56,2.3,3.56,2.3-1.21,2.3-3.56m-6.01,0c0-3.03,1.67-4.72,3.71-4.72s3.71,1.65,3.71,4.72-1.55,4.72-3.71,4.72-3.71-1.77-3.71-4.72m2.59-12.2h1.31l-9.54,16.59h-1.33L70.93,3.78Zm-7.05,4.36c0-2.3-1.02-3.56-2.3-3.56s-2.3,1.21-2.3,3.56,.97,3.59,2.3,3.59,2.3-1.24,2.3-3.59m-6.03,0c0-3,1.67-4.72,3.73-4.72s3.68,1.67,3.68,4.72-1.55,4.72-3.68,4.72-3.73-1.74-3.73-4.72"/></g></g></g></svg>