<?xml version="1.0" encoding="UTF-8"?><svg id="Camada_2" xmlns="http://www.w3.org/2000/svg" viewBox="0 0 61.67 61.67"><defs><style>.cls-1{fill:none;stroke:#002554;stroke-miterlimit:10;stroke-width:1.67px;}.cls-2{fill:#002554;}</style></defs><g id="Camada_1-2"><g><g><path class="cls-2" d="M40.2,19.46c-1.15,0-2.07,.93-2.07,2.07s.93,2.07,2.07,2.07,2.07-.93,2.07-2.07-.93-2.07-2.07-2.07Z"/><path class="cls-2" d="M30.98,22.12c-4.8,0-8.71,3.91-8.71,8.71s3.91,8.71,8.71,8.71,8.71-3.91,8.71-8.71-3.91-8.71-8.71-8.71Zm0,14.29c-3.08,0-5.58-2.5-5.58-5.58s2.5-5.58,5.58-5.58,5.58,2.5,5.58,5.58-2.5,5.58-5.58,5.58Z"/><path class="cls-2" d="M37.9,48.52h-14.13c-5.86,0-10.63-4.77-10.63-10.63v-14.13c0-5.86,4.77-10.63,10.63-10.63h14.13c5.86,0,10.63,4.77,10.63,10.63v14.13c0,5.86-4.77,10.63-10.63,10.63ZM23.77,16.47c-4.02,0-7.3,3.27-7.3,7.3v14.13c0,4.02,3.27,7.3,7.3,7.3h14.13c4.02,0,7.3-3.27,7.3-7.3v-14.13c0-4.02-3.27-7.3-7.3-7.3h-14.13Z"/></g><circle class="cls-1" cx="30.83" cy="30.83" r="30"/></g></g></svg>