<?xml version="1.0" encoding="UTF-8"?><svg id="Camada_2" xmlns="http://www.w3.org/2000/svg" viewBox="0 0 252.16 142.53"><defs><style>.cls-1{fill:#002554;}</style></defs><g id="Camada_1-2"><g><path class="cls-1" d="M55.56,101.39c0-2.37-1.81-4.29-4.03-4.29H12.89c-2.23,0-4.03,1.92-4.03,4.29s1.81,4.29,4.03,4.29H51.53c2.23,0,4.03-1.92,4.03-4.29Z"/><path class="cls-1" d="M13.67,48.82c-2.23,0-4.03,1.92-4.03,4.29s1.81,4.29,4.03,4.29H50.39c2.23,0,4.03-1.92,4.03-4.29s-1.81-4.29-4.03-4.29H13.67Z"/><path class="cls-1" d="M4.03,33.24H15.33c2.23,0,4.03-1.92,4.03-4.29s-1.81-4.29-4.03-4.29H4.03c-2.23,0-4.03,1.92-4.03,4.29s1.81,4.29,4.03,4.29Z"/><path class="cls-1" d="M71.47,77.25c0-2.37-1.81-4.29-4.03-4.29H4.84c-2.23,0-4.03,1.92-4.03,4.29s1.81,4.29,4.03,4.29h62.59c2.23,0,4.03-1.92,4.03-4.29Z"/><path class="cls-1" d="M30.92,33.24h38.54c1.58,0,2.95-.97,3.62-2.38,.27-.57,.42-1.22,.42-1.9s-.15-1.33-.42-1.9c-.66-1.41-2.03-2.38-3.62-2.38H30.92c-1.58,0-2.95,.97-3.61,2.38-.27,.57-.42,1.22-.42,1.91s.15,1.33,.42,1.91c.66,1.41,2.03,2.38,3.61,2.38Z"/><path class="cls-1" d="M249.17,63.68l-19.96-33.77c-3.05-5.15-8.28-8.23-14.01-8.23h-41.32c-.04-3.47-.83-6.75-2.22-9.66-3.52-7.42-10.77-12.01-18.59-12.01H49.57c-5.92,.82-11.06,4.29-14.34,9.25-2.02,3.05-.91,6.16,2.54,6.79,1.56,.28,3.11-.42,3.99-1.77,2.3-3.55,6.15-5.88,10.52-5.88h100.78c7.05,0,12.76,6.07,12.76,13.55V118.96h-55.29c0-.14,.01-.28,.01-.43,0-13.23-10.14-24-22.6-24s-22.6,10.77-22.6,24c0,.14,0,.29,.01,.43h-13.08c-3.32,0-6.33-1.35-8.6-3.55-.76-.74-1.73-1.17-2.76-1.17-3.66,0-5.44,4.78-2.74,7.42,3.71,3.64,8.67,5.87,14.11,5.87h14.72c3.36,8.79,11.48,15,20.94,15s17.58-6.21,20.94-15h81.59c3.36,8.79,11.48,15,20.94,15s17.58-6.21,20.94-15h4.77c8.31,0,15.04-7.15,15.04-15.98v-36.82c0-3.92-1.04-7.74-3-11.06ZM102.45,119.26c-.34,7.91-6.38,14.32-13.83,14.69-8.55,.42-15.58-7.06-15.19-16.14,.34-7.91,6.38-14.32,13.83-14.69,8.55-.42,15.58,7.06,15.19,16.14Zm123.47,0c-.34,7.91-6.38,14.32-13.83,14.69-8.55,.42-15.59-7.06-15.19-16.14,.34-7.91,6.38-14.32,13.83-14.69,8.55-.42,15.58,7.06,15.19,16.14Zm18.17-7.7c0,4.09-3.12,7.41-6.98,7.41h-3.12c0-.14,.01-.28,.01-.43,0-13.23-10.14-24-22.6-24s-22.6,10.77-22.6,24c0,.14,0,.29,.01,.43h-14.94V30.24h41.31c2.92,0,5.63,1.59,7.18,4.22l19.96,33.77c1.09,1.85,1.69,3.98,1.75,6.15h-37.11v-29.48c0-2.34-1.72-4.31-3.92-4.37-2.28-.07-4.15,1.88-4.15,4.28v33.86c0,2.37,1.81,4.29,4.03,4.29h41.16v28.59Z"/></g></g></svg>