<?xml version="1.0" encoding="UTF-8"?><svg id="Camada_2" xmlns="http://www.w3.org/2000/svg" viewBox="0 0 184.59 194.67"><defs><style>.cls-1{fill:#002554;}</style></defs><g id="Camada_1-2"><g><path class="cls-1" d="M11.72,168.85c-.83-.83-2.18-.83-3.01,0-.83,.83-.83,2.18,0,3.01l5.95,5.95c.41,.41,.96,.62,1.5,.62s1.09-.21,1.5-.62c.83-.83,.83-2.18,0-3.01l-5.94-5.95Z"/><path class="cls-1" d="M11.72,130.28c-.83-.83-2.18-.83-3.01,0-.83,.83-.83,2.17,0,3l5.95,5.95c.41,.42,.96,.63,1.5,.63s1.09-.21,1.5-.63c.83-.83,.83-2.17,0-3l-5.94-5.95Z"/><path class="cls-1" d="M11.72,91.7c-.83-.83-2.18-.83-3.01,0-.83,.83-.83,2.18,0,3.01l5.95,5.95c.41,.41,.96,.62,1.5,.62s1.09-.21,1.5-.62c.83-.83,.83-2.18,0-3.01l-5.94-5.95Z"/><path class="cls-1" d="M11.72,53.13c-.83-.83-2.18-.83-3.01,0-.83,.83-.83,2.18,0,3.01l5.95,5.95c.41,.41,.96,.62,1.5,.62s1.09-.21,1.5-.62c.83-.83,.83-2.18,0-3.01l-5.94-5.95Z"/><path class="cls-1" d="M30.52,77.95c.41,.41,.96,.62,1.5,.62s1.09-.21,1.51-.62c.83-.83,.83-2.18,0-3.01l-5.95-5.95c-.83-.83-2.18-.83-3.01,0-.83,.83-.83,2.18,0,3.01l5.95,5.95Z"/><path class="cls-1" d="M78.1,86.96c.42,.41,.96,.62,1.51,.62s1.08-.21,1.5-.62c.83-.83,.83-2.18,0-3.01l-5.95-5.95c-.83-.83-2.18-.83-3.01,0s-.83,2.18,0,3.01l5.95,5.95Z"/><path class="cls-1" d="M46.38,55.23c.41,.42,.96,.63,1.5,.63s1.09-.21,1.51-.63c.83-.83,.83-2.17,0-3l-5.95-5.95c-.83-.83-2.18-.83-3.01,0s-.83,2.18,0,3.01l5.95,5.94Z"/><path class="cls-1" d="M62.24,71.1c.42,.41,.96,.62,1.5,.62s1.09-.21,1.51-.62c.83-.84,.83-2.18,0-3.01l-5.95-5.95c-.83-.83-2.18-.83-3.01,0-.83,.83-.83,2.18,0,3.01l5.95,5.95Z"/><path class="cls-1" d="M78.1,48.38c.42,.42,.96,.63,1.51,.63s1.08-.21,1.5-.63c.83-.83,.83-2.17,0-3l-5.95-5.95c-.83-.83-2.18-.83-3.01,0-.83,.83-.83,2.17,0,3l5.95,5.95Z"/><path class="cls-1" d="M181.76,139.43h-43.35v-46.73c0-1.57-1.27-2.84-2.84-2.84h-11.38V2.83c0-1.57-1.27-2.83-2.83-2.83H29.01c-1.57,0-2.83,1.27-2.83,2.83V28.27H2.84c-1.57,0-2.84,1.27-2.84,2.84V191.84c0,1.56,1.27,2.83,2.84,2.83H75.03s.02,0,.03,0h106.7c1.57,0,2.83-1.27,2.83-2.83v-49.57c0-1.57-1.27-2.83-2.83-2.83Zm-70.32-49.57l-21.25-26.15v-6.64l25.75-31.69,2.58,3.17v61.31h-7.08Zm-21.25-22.09l17.95,22.09h-17.95v-22.09Zm27.39-44.42l.94-1.15v2.3l-.94-1.15Zm.94-17.68v12.46l-2.58,3.18-12.72-15.65h15.3Zm-18.59,0l14.36,17.68-24.1,29.66V31.11c0-1.57-1.27-2.84-2.83-2.84h-25.96l-4-4.92,14.36-17.68h28.16ZM58.1,28.27h-4.7l2.35-2.89,2.35,2.89Zm10.37-22.6l-12.72,15.65-12.72-15.65h25.43Zm-36.62,0h7.89l14.36,17.68-4,4.92H31.85V5.67Zm-4.27,179.04c-.83-.83-2.18-.83-3.01,0-.83,.83-.83,2.18,0,3.01l1.28,1.28H5.67V33.94H25.08l5.44,5.43c.41,.42,.96,.63,1.5,.63s1.09-.21,1.51-.63c.83-.83,.83-2.17,0-3l-2.43-2.43h53.42v55.92H48.45l-5.01-5.01c-.83-.83-2.18-.83-3.01,0s-.83,2.18,0,3.01l2,2h-6c-1.57,0-2.84,1.27-2.84,2.84v20.88s-.04-.05-.06-.07l-5.95-5.94c-.83-.83-2.18-.83-3.01,0-.83,.83-.83,2.17,0,3l5.95,5.95c.41,.42,.96,.62,1.5,.62s1.09-.2,1.51-.62c.02-.02,.04-.05,.06-.07v35.72s-.04-.05-.06-.07l-5.95-5.95c-.83-.83-2.18-.83-3.01,0-.83,.83-.83,2.18,0,3.01l5.95,5.94c.41,.42,.96,.63,1.5,.63s1.09-.21,1.51-.63c.02-.02,.04-.05,.06-.07v33.98h-1.72l-4.29-4.29Zm11.68-89.18h93.48v43.9h-57.68c-1.57,0-2.83,1.27-2.83,2.83v46.73H39.26V95.53Zm50.93,93.47h-12.3v-12.35l13.4,12.35h-1.1Zm11.87,0h-5.69l-18.48-17.03v-21.06l41.33,38.09h-17.16Zm22.25,0l-46.42-42.77v-1.13h21.63l47.64,43.9h-22.85Zm27.94,0l-47.65-43.9h22.86l47.64,43.9h-22.85Zm26.68-1.16l-46.38-42.74h22.86l23.52,21.68v21.06Zm0-25.74l-18.45-17h18.45v17Z"/></g></g></svg>