<?xml version="1.0" encoding="UTF-8"?><svg id="Camada_2" xmlns="http://www.w3.org/2000/svg" viewBox="0 0 124.35 194.48"><defs><style>.cls-1{fill:#002554;}</style></defs><g id="Camada_1-2"><path class="cls-1" d="M62.18,194.48C27.89,194.48,0,166.59,0,132.3c0-32.48,25.37-59.72,57.76-62l1.13-.08v-28.63l-15.87-12.45c-.69-.54-1.13-1.32-1.23-2.19-.1-.87,.14-1.73,.68-2.42,.63-.8,1.57-1.26,2.59-1.26,.74,0,1.44,.24,2.03,.7l11.8,9.26v-14.89l-15.87-12.45c-1.43-1.12-1.68-3.19-.56-4.62,.63-.8,1.57-1.26,2.59-1.26,.74,0,1.44,.24,2.03,.7l15.09,11.85L77.27,.7c.59-.46,1.29-.7,2.03-.7,1.02,0,1.96,.46,2.59,1.26,.54,.69,.78,1.55,.68,2.43-.1,.87-.54,1.65-1.23,2.19l-15.87,12.45v14.89l11.8-9.26c.59-.46,1.29-.7,2.03-.7,1.02,0,1.96,.46,2.59,1.26,.54,.69,.78,1.55,.68,2.43-.1,.87-.54,1.65-1.23,2.19l-15.87,12.45v28.63l1.13,.08c32.39,2.29,57.76,29.52,57.76,62,0,34.28-27.89,62.18-62.18,62.18Zm-4.61-117.57c-28.59,2.36-50.99,26.69-50.99,55.39,0,30.66,24.94,55.6,55.6,55.6s55.6-24.94,55.6-55.6c0-28.7-22.4-53.03-50.99-55.39l-1.32-.11v17.11l1.08,.12c19.47,2.21,34.15,18.66,34.15,38.27,0,21.24-17.28,38.52-38.52,38.52s-38.52-17.28-38.52-38.52c0-19.61,14.68-36.06,34.15-38.27l1.08-.12v-17.11l-1.32,.11Zm-.08,23.79c-15.54,2.29-27.26,15.88-27.26,31.6,0,17.61,14.33,31.94,31.94,31.94s31.94-14.33,31.94-31.94c0-15.72-11.72-29.3-27.26-31.6l-1.39-.21v14.56l.92,.23c7.85,1.95,13.33,8.94,13.33,17.01,0,9.68-7.87,17.55-17.55,17.55s-17.55-7.87-17.55-17.55c0-8.07,5.48-15.07,13.33-17.01l.92-.23v-14.56l-1.39,.21Zm-.39,21.88c-3.64,1.9-5.9,5.63-5.9,9.72,0,6.05,4.92,10.97,10.97,10.97s10.97-4.92,10.97-10.97c0-4.09-2.26-7.81-5.9-9.72l-1.78-.93v10.65c0,1.81-1.48,3.29-3.29,3.29s-3.29-1.48-3.29-3.29v-10.65l-1.78,.93Z"/></g></svg>