<?xml version="1.0" encoding="UTF-8"?><svg id="Camada_2" xmlns="http://www.w3.org/2000/svg" viewBox="0 0 141.5 170.27"><defs><style>.cls-1{fill:#687b4f;}.cls-2{fill:#657a4f;}.cls-3{fill:#20264a;}</style></defs><g id="Camada_1-2"><g><g><path class="cls-2" d="M17.39,149.58h7.55c3.01,0,4.87,1.64,4.87,4.2,0,1.93-.85,3.53-2.79,4.07v.04c1.86,.36,2.25,1.73,2.4,3.3,.13,1.57,.04,3.32,.94,4.42h-2.38c-.61-.65-.27-2.38-.58-3.95-.22-1.57-.61-2.9-2.67-2.9h-5.21v6.85h-2.13v-16.04Zm6.58,7.39c2,0,3.71-.52,3.71-2.85,0-1.57-.85-2.74-2.85-2.74h-5.3v5.59h4.45Z"/><path class="cls-2" d="M42.37,161.94c-.52,2.56-2.36,3.95-4.96,3.95-3.71,0-5.46-2.56-5.57-6.11,0-3.48,2.29-6.04,5.46-6.04,4.11,0,5.37,3.84,5.26,6.65h-8.69c-.07,2.02,1.08,3.82,3.62,3.82,1.57,0,2.67-.76,3.01-2.27h1.89Zm-1.84-3.23c-.09-1.82-1.46-3.28-3.35-3.28-2,0-3.19,1.5-3.32,3.28h6.67Z"/><path class="cls-2" d="M52.41,157.73c-.29-1.46-1.3-2.31-2.88-2.31-2.76,0-3.62,2.18-3.62,4.54,0,2.13,.97,4.25,3.39,4.25,1.84,0,2.94-1.08,3.19-2.83h1.95c-.43,2.83-2.2,4.51-5.12,4.51-3.55,0-5.44-2.47-5.44-5.93s1.8-6.22,5.48-6.22c2.63,0,4.74,1.24,5.01,4h-1.98Z"/><path class="cls-2" d="M61.15,167.17c-.88,2.27-1.66,3.1-3.37,3.1-.45,0-.9-.04-1.33-.2v-1.75c.36,.11,.74,.27,1.12,.27,.79,0,1.21-.38,1.57-1.06l.79-1.98-4.6-11.54h2.16l3.39,9.5h.04l3.26-9.5h2.02l-5.05,13.16Z"/><path class="cls-2" d="M75.7,157.73c-.29-1.46-1.3-2.31-2.88-2.31-2.76,0-3.62,2.18-3.62,4.54,0,2.13,.97,4.25,3.39,4.25,1.84,0,2.94-1.08,3.19-2.83h1.95c-.43,2.83-2.2,4.51-5.12,4.51-3.55,0-5.44-2.47-5.44-5.93s1.8-6.22,5.48-6.22c2.63,0,4.74,1.24,5.01,4h-1.98Z"/><path class="cls-2" d="M79.99,149.58h1.91v16.04h-1.91v-16.04Z"/><path class="cls-2" d="M95.16,165.57c-.34,.2-.76,.31-1.37,.31-.99,0-1.62-.54-1.62-1.8-1.06,1.24-2.47,1.8-4.09,1.8-2.11,0-3.84-.94-3.84-3.26,0-2.63,1.95-3.19,3.93-3.57,2.11-.4,3.91-.27,3.91-1.71,0-1.66-1.37-1.93-2.58-1.93-1.62,0-2.81,.49-2.9,2.2h-1.91c.11-2.88,2.34-3.89,4.92-3.89,2.09,0,4.36,.47,4.36,3.19v5.97c0,.9,0,1.3,.61,1.3,.16,0,.34-.02,.58-.11v1.48Zm-3.1-5.95c-.74,.54-2.18,.56-3.46,.79-1.26,.22-2.34,.67-2.34,2.09,0,1.26,1.08,1.71,2.25,1.71,2.52,0,3.55-1.57,3.55-2.63v-1.95Z"/><path class="cls-2" d="M97,149.58h1.91v6h.04c.63-1.28,2.11-1.84,3.71-1.84,3.57,0,5.35,2.83,5.35,6.11s-1.75,6.04-5.3,6.04c-1.19,0-2.9-.45-3.75-1.82h-.04v1.55h-1.91v-16.04Zm5.39,5.84c-2.56,0-3.55,2.2-3.55,4.38,0,2.29,1.03,4.4,3.66,4.4s3.48-2.22,3.48-4.49-1.12-4.29-3.59-4.29Z"/><path class="cls-2" d="M110.36,149.58h1.91v16.04h-1.91v-16.04Z"/><path class="cls-2" d="M125.14,161.94c-.52,2.56-2.36,3.95-4.96,3.95-3.71,0-5.46-2.56-5.57-6.11,0-3.48,2.29-6.04,5.46-6.04,4.11,0,5.37,3.84,5.26,6.65h-8.69c-.07,2.02,1.08,3.82,3.62,3.82,1.57,0,2.67-.76,3.01-2.27h1.89Zm-1.84-3.23c-.09-1.82-1.46-3.28-3.35-3.28-2,0-3.19,1.5-3.32,3.28h6.67Z"/></g><g><g><path class="cls-1" d="M80.95,30.82c.02,.32-.12,.65-.37,.85l-8.76,7.31c-.2,.15-.42,.22-.67,.22-.3,0-.57-.12-.8-.37-.35-.42-.3-1.07,.15-1.45l6.56-5.47c-.07,0-.1,.02-.17,.02h-.17c-1.3,0-2.6,.08-3.87,.23-10.51,1.15-20.14,7.19-25.83,16.12-5.79,9.13-7.06,20.64-3.37,30.82,3.57,9.86,11.61,17.82,21.46,21.26,.55,.2,.82,.77,.65,1.32-.15,.42-.55,.7-.97,.7-.12,0-.25-.02-.35-.07-10.46-3.64-18.97-12.06-22.74-22.51-3.89-10.76-2.57-22.96,3.57-32.62,6.02-9.46,16.22-15.85,27.36-17.1,1.32-.15,2.7-.23,4.04-.23l-6.19-4.24c-.47-.32-.6-.97-.27-1.45,.32-.47,.97-.6,1.45-.27l8.86,6.11c.27,.18,.42,.47,.45,.8Z"/><path class="cls-1" d="M106.13,86.18c-6.02,9.46-16.22,15.85-27.33,17.07-1.35,.15-2.7,.22-4.07,.22l6.19,4.27c.47,.32,.6,.97,.27,1.42-.2,.3-.52,.45-.85,.45-.2,0-.4-.05-.57-.17l-8.89-6.12c-.27-.17-.42-.47-.45-.8,0-.32,.12-.62,.37-.85l8.76-7.29c.45-.37,1.1-.3,1.47,.13,.35,.45,.3,1.1-.15,1.47l-6.56,5.47c.07-.02,.12-.05,.17-.05h.17c1.3,0,2.6-.07,3.87-.2,10.51-1.17,20.14-7.19,25.83-16.15,5.79-9.11,7.06-20.64,3.37-30.82-3.57-9.86-11.61-17.8-21.46-21.24-.55-.2-.82-.8-.65-1.32,.2-.55,.8-.82,1.32-.65,10.46,3.67,18.97,12.08,22.74,22.51,3.92,10.78,2.57,22.99-3.57,32.65Z"/></g><path class="cls-3" d="M126.82,24.63C114.34,9.19,95.08,0,75.25,0c-.15,0-.29,0-.43,0-.57,0-1.03,.47-1.03,1.04,0,.57,.47,1.03,1.04,1.03h0c19.38-.12,38.19,8.79,50.37,23.86,12.24,15.14,16.97,35.54,12.66,54.57-4.22,18.59-16.97,34.77-34.11,43.27-17.66,8.76-38.8,8.85-56.52,.21-17.36-8.45-30.26-24.69-34.53-43.45-.44-1.94-.77-3.92-1.03-5.91l12.6,12.05c.42,.39,1.07,.38,1.46-.03,.39-.41,.38-1.07-.03-1.46l-14.83-14.2c-.23-.22-.56-.33-.88-.28-.32,.05-.6,.25-.75,.54L.12,88.35c-.27,.5-.08,1.13,.43,1.4,.15,.08,.32,.12,.48,.12,.37,0,.73-.2,.91-.55l7.68-14.4c.27,2.04,.61,4.07,1.06,6.07,4.4,19.37,17.73,36.14,35.64,44.86,9.08,4.42,19.01,6.62,28.94,6.62s20.21-2.28,29.41-6.85c17.69-8.77,30.85-25.47,35.2-44.67,4.46-19.64-.43-40.7-13.06-56.33Z"/></g></g></g></svg>