<?xml version="1.0" encoding="UTF-8"?><svg id="Camada_2" xmlns="http://www.w3.org/2000/svg" viewBox="0 0 152.26 219.82"><defs><style>.cls-1{fill:#687b4f;}.cls-2{fill:#657a4f;}.cls-3{fill:#20264a;}</style></defs><g id="Camada_1-2"><g><g><path class="cls-2" d="M53.89,163.84l9.97-12.44h-9.21v-1.8h11.72v1.8l-9.95,12.44h10.22v1.8h-12.76v-1.8Z"/><path class="cls-2" d="M78.46,161.95c-.52,2.56-2.36,3.95-4.96,3.95-3.71,0-5.46-2.56-5.57-6.11,0-3.48,2.29-6.04,5.46-6.04,4.11,0,5.37,3.84,5.26,6.65h-8.69c-.07,2.02,1.08,3.82,3.62,3.82,1.57,0,2.67-.76,3.01-2.27h1.89Zm-1.84-3.23c-.09-1.82-1.46-3.28-3.35-3.28-2,0-3.19,1.5-3.32,3.28h6.67Z"/><path class="cls-2" d="M80.55,154.02h1.8v2.45h.04c.92-1.86,2.2-2.79,4.27-2.72v2.02c-3.08,0-4.2,1.75-4.2,4.69v5.17h-1.91v-11.61Z"/><path class="cls-2" d="M93.11,153.75c3.68,0,5.64,2.67,5.64,6.09s-1.95,6.06-5.64,6.06-5.64-2.67-5.64-6.06,1.95-6.09,5.64-6.09Zm0,10.47c2,0,3.62-1.57,3.62-4.38s-1.62-4.4-3.62-4.4-3.62,1.57-3.62,4.4,1.62,4.38,3.62,4.38Z"/><path class="cls-2" d="M6.27,176.55h2.36l6.27,16.04h-2.36l-1.75-4.83H4l-1.8,4.83H0l6.27-16.04Zm-1.59,9.41h5.44l-2.67-7.48h-.04l-2.72,7.48Z"/><path class="cls-2" d="M16.26,176.55h1.91v16.04h-1.91v-16.04Z"/><path class="cls-2" d="M21.25,176.55h1.91v16.04h-1.91v-16.04Z"/><path class="cls-2" d="M36.03,188.91c-.52,2.56-2.36,3.95-4.96,3.95-3.71,0-5.46-2.56-5.57-6.11,0-3.48,2.29-6.04,5.46-6.04,4.11,0,5.37,3.84,5.26,6.65h-8.69c-.07,2.02,1.08,3.82,3.62,3.82,1.57,0,2.67-.76,3.01-2.27h1.89Zm-1.84-3.23c-.09-1.82-1.46-3.28-3.35-3.28-2,0-3.19,1.5-3.32,3.28h6.67Z"/><path class="cls-2" d="M38.12,180.98h1.8v2.45h.04c.92-1.86,2.2-2.79,4.27-2.72v2.02c-3.08,0-4.2,1.75-4.2,4.69v5.17h-1.91v-11.61Z"/><path class="cls-2" d="M55.68,191.6c0,3.77-1.73,5.71-5.39,5.71-2.18,0-4.69-.88-4.81-3.41h1.91c.09,1.39,1.75,1.89,3.01,1.89,2.49,0,3.48-1.8,3.48-4.4v-.76h-.04c-.63,1.42-2.16,2.11-3.62,2.11-3.46,0-5.19-2.72-5.19-5.88,0-2.74,1.35-6.13,5.37-6.13,1.46,0,2.76,.65,3.46,1.93h.02v-1.66h1.8v10.62Zm-1.89-5.05c0-2.04-.9-4.16-3.3-4.16s-3.44,2-3.44,4.22c0,2.09,.76,4.42,3.28,4.42s3.46-2.31,3.46-4.49Z"/><path class="cls-2" d="M68.46,188.91c-.52,2.56-2.36,3.95-4.96,3.95-3.71,0-5.46-2.56-5.57-6.11,0-3.48,2.29-6.04,5.46-6.04,4.11,0,5.37,3.84,5.26,6.65h-8.69c-.07,2.02,1.08,3.82,3.62,3.82,1.57,0,2.67-.76,3.01-2.27h1.89Zm-1.84-3.23c-.09-1.82-1.46-3.28-3.35-3.28-2,0-3.19,1.5-3.32,3.28h6.67Z"/><path class="cls-2" d="M70.62,180.98h1.8v1.84h.04c.81-1.44,2.11-2.11,3.77-2.11,3.05,0,4,1.75,4,4.25v7.64h-1.91v-7.86c0-1.42-.9-2.34-2.36-2.34-2.31,0-3.44,1.55-3.44,3.64v6.56h-1.91v-11.61Z"/><path class="cls-2" d="M84.28,188.93c.07,1.71,1.55,2.25,3.12,2.25,1.19,0,2.81-.27,2.81-1.73s-1.89-1.73-3.8-2.16c-1.89-.43-3.8-1.06-3.8-3.28,0-2.34,2.31-3.3,4.33-3.3,2.56,0,4.6,.81,4.76,3.64h-1.91c-.13-1.48-1.44-1.95-2.7-1.95-1.15,0-2.47,.31-2.47,1.48,0,1.37,2.02,1.59,3.8,2.02,1.91,.43,3.8,1.06,3.8,3.3,0,2.76-2.58,3.66-4.94,3.66-2.61,0-4.81-1.06-4.92-3.93h1.91Z"/><path class="cls-2" d="M95.51,188.93c.07,1.71,1.55,2.25,3.12,2.25,1.19,0,2.81-.27,2.81-1.73s-1.89-1.73-3.8-2.16c-1.89-.43-3.8-1.06-3.8-3.28,0-2.34,2.31-3.3,4.33-3.3,2.56,0,4.6,.81,4.76,3.64h-1.91c-.13-1.48-1.44-1.95-2.7-1.95-1.15,0-2.47,.31-2.47,1.48,0,1.37,2.02,1.59,3.8,2.02,1.91,.43,3.8,1.06,3.8,3.3,0,2.76-2.58,3.66-4.94,3.66-2.61,0-4.81-1.06-4.92-3.93h1.91Z"/><path class="cls-2" d="M108.22,180.98h2.31v1.68h-2.31v7.21c0,.88,.25,1.03,1.44,1.03h.88v1.68h-1.46c-1.98,0-2.76-.4-2.76-2.54v-7.39h-1.98v-1.68h1.98v-3.48h1.91v3.48Z"/><path class="cls-2" d="M122.55,188.91c-.52,2.56-2.36,3.95-4.96,3.95-3.71,0-5.46-2.56-5.57-6.11,0-3.48,2.29-6.04,5.46-6.04,4.11,0,5.37,3.84,5.26,6.65h-8.69c-.07,2.02,1.08,3.82,3.62,3.82,1.57,0,2.67-.76,3.01-2.27h1.89Zm-1.84-3.23c-.09-1.82-1.46-3.28-3.35-3.28-2,0-3.19,1.5-3.32,3.28h6.67Z"/><path class="cls-2" d="M124.64,180.98h1.8v2.45h.04c.92-1.86,2.2-2.79,4.27-2.72v2.02c-3.08,0-4.2,1.75-4.2,4.69v5.17h-1.91v-11.61Z"/><path class="cls-2" d="M134.21,178.89h-1.91v-2.34h1.91v2.34Zm-1.91,2.09h1.91v11.61h-1.91v-11.61Z"/><path class="cls-2" d="M137.29,176.55h1.91v16.04h-1.91v-16.04Z"/><path class="cls-2" d="M152.07,188.91c-.52,2.56-2.36,3.95-4.96,3.95-3.71,0-5.46-2.56-5.57-6.11,0-3.48,2.29-6.04,5.46-6.04,4.11,0,5.37,3.84,5.26,6.65h-8.69c-.07,2.02,1.08,3.82,3.62,3.82,1.57,0,2.67-.76,3.01-2.27h1.89Zm-1.84-3.23c-.09-1.82-1.46-3.28-3.35-3.28-2,0-3.19,1.5-3.32,3.28h6.67Z"/><path class="cls-2" d="M38.29,203.51h7.03c3.19,0,4.92,1.77,4.92,4.74s-1.73,4.76-4.92,4.74h-4.9v6.56h-2.13v-16.04Zm2.13,7.68h4.18c2.4,.02,3.5-1.03,3.5-2.94s-1.1-2.94-3.5-2.94h-4.18v5.88Z"/><path class="cls-2" d="M52.46,207.93h1.8v2.45h.04c.92-1.86,2.2-2.79,4.27-2.72v2.02c-3.08,0-4.2,1.75-4.2,4.69v5.17h-1.91v-11.61Z"/><path class="cls-2" d="M65.02,207.66c3.68,0,5.64,2.67,5.64,6.09s-1.95,6.06-5.64,6.06-5.64-2.67-5.64-6.06,1.95-6.09,5.64-6.09Zm0,10.47c2,0,3.62-1.57,3.62-4.38s-1.62-4.4-3.62-4.4-3.62,1.57-3.62,4.4,1.62,4.38,3.62,4.38Z"/><path class="cls-2" d="M83.28,219.55h-1.91v-1.57h-.04c-.63,1.28-2.11,1.84-3.71,1.84-3.57,0-5.35-2.83-5.35-6.11s1.75-6.04,5.3-6.04c1.19,0,2.9,.45,3.75,1.82h.04v-5.97h1.91v16.04Zm-5.39-1.42c2.56,0,3.55-2.2,3.55-4.38,0-2.29-1.03-4.4-3.66-4.4s-3.48,2.22-3.48,4.49,1.12,4.29,3.59,4.29Z"/><path class="cls-2" d="M95.84,219.55h-1.8v-1.84h-.04c-.81,1.44-2.11,2.11-3.77,2.11-3.05,0-4-1.75-4-4.25v-7.64h1.91v7.86c0,1.42,.9,2.34,2.36,2.34,2.31,0,3.44-1.55,3.44-3.64v-6.56h1.91v11.61Z"/><path class="cls-2" d="M106.6,211.66c-.29-1.46-1.3-2.31-2.88-2.31-2.76,0-3.62,2.18-3.62,4.54,0,2.13,.97,4.25,3.39,4.25,1.84,0,2.94-1.08,3.19-2.83h1.95c-.43,2.83-2.2,4.51-5.12,4.51-3.55,0-5.44-2.47-5.44-5.93s1.8-6.22,5.48-6.22c2.63,0,4.74,1.24,5.01,4h-1.98Z"/><path class="cls-2" d="M113.42,207.93h2.31v1.68h-2.31v7.21c0,.88,.25,1.03,1.44,1.03h.88v1.68h-1.46c-1.98,0-2.76-.4-2.76-2.54v-7.39h-1.98v-1.68h1.98v-3.48h1.91v3.48Z"/></g><g><path class="cls-3" d="M132.4,24.55C119.88,9.12,100.62-.03,80.78,0h-.43c-.57,0-1.03,.47-1.03,1.05,0,.57,.47,1.03,1.04,1.03h.01c19.36-.16,38.21,8.73,50.42,23.79,12.27,15.13,17.03,35.52,12.74,54.57-4.19,18.6-16.92,34.8-34.05,43.34-17.66,8.79-38.79,8.9-56.54,.3-17.37-8.42-30.31-24.65-34.61-43.41-.44-1.94-.77-3.92-1.04-5.91l12.62,12.04c.41,.4,1.07,.38,1.46-.03s.38-1.07-.03-1.47l-14.86-14.18c-.23-.22-.56-.32-.88-.27-.32,.05-.6,.25-.75,.54l-9.09,17.12c-.27,.51-.07,1.13,.43,1.4,.16,.08,.32,.12,.49,.12,.37,0,.73-.2,.91-.55l7.66-14.41c.27,2.04,.61,4.08,1.07,6.07,4.43,19.36,17.79,36.12,35.72,44.81,9.08,4.41,19.02,6.59,28.96,6.58,10.11-.02,20.21-2.32,29.4-6.89,17.68-8.8,30.82-25.53,35.14-44.73,4.43-19.66-.49-40.71-13.15-56.32Z"/><g><path class="cls-1" d="M66.69,85.53c3.93,.6,8,1.23,11.27,1.02,.86-.05,1.68-.12,2.46-.18,4.04-.33,6.72-.54,8.53,1.32,1.49,1.53,2.06,2.52,2.23,2.98-.07,0-.16,0-.27-.02-15.81-1.91-26.14,3.43-26.57,3.66-.5,.26-.69,.88-.42,1.38,.18,.34,.54,.54,.9,.54,.16,0,.32-.04,.48-.12,.1-.05,10.18-5.28,25.37-3.44,1.54,.18,2.18-.41,2.44-.95,.22-.44,.89-1.79-2.7-5.46-2.48-2.55-5.87-2.28-10.15-1.94-.77,.06-1.57,.13-2.42,.18-3.05,.19-7.01-.41-10.83-1-2.82-.43-5.73-.88-8.35-1.02-4.56-.25-8.6,1.53-12.17,3.11-1.44,.64-2.8,1.23-4.02,1.61-.54,.17-.84,.74-.67,1.28,.17,.54,.74,.84,1.28,.67,1.33-.42,2.75-1.04,4.24-1.69,3.36-1.48,7.18-3.17,11.24-2.94,2.52,.14,5.38,.58,8.15,1Z"/><path class="cls-1" d="M126.95,87.62c-4.07-3.9-10.54-2.01-18.03,.18-4.55,1.33-9.25,2.7-13.92,2.96-.56,.03-1,.51-.96,1.07s.52,.98,1.08,.96c4.9-.27,9.94-1.74,14.38-3.03,6.28-1.84,11.78-3.44,15.14-1.38-1.78,.86-7.22,3.04-23.88,8.22-12.4,3.86-23.76,7.13-24.96,7.37-1.6,.31-2.58,.17-5.2-.21-1.62-.24-3.84-.56-7.14-.9-3.02-.31-6.48-.24-10.26,.21-.56,.07-.96,.57-.89,1.13,.06,.56,.58,.95,1.13,.89,3.58-.43,6.98-.5,9.81-.21,3.26,.34,5.45,.66,7.05,.89,1.66,.24,2.77,.4,3.83,.4,.66,0,1.31-.06,2.05-.21,1.47-.29,14-3.93,26.07-7.7,24.45-7.64,24.77-8.72,25-9.51,.12-.41,0-.85-.3-1.15Z"/></g><g><path class="cls-1" d="M81.06,36.99c-1.21-1.19-2.81-1.84-4.51-1.84h-.08c-1.73,.02-3.34,.72-4.55,1.95-1.2,1.24-1.85,2.87-1.83,4.59s.72,3.34,1.95,4.54c1.21,1.18,2.81,1.83,4.5,1.83h.09c1.72-.02,3.34-.71,4.54-1.95,1.2-1.24,1.85-2.86,1.83-4.59-.02-1.72-.71-3.34-1.95-4.54Zm-1.34,7.71c-.82,.84-1.93,1.32-3.1,1.33-1.19,0-2.3-.43-3.14-1.26-.84-.82-1.32-1.93-1.33-3.1-.01-1.18,.43-2.3,1.25-3.14,.82-.84,1.93-1.32,3.11-1.33h.06c1.16,0,2.25,.45,3.09,1.26,.85,.82,1.32,1.92,1.33,3.11,.02,1.18-.43,2.29-1.25,3.14Z"/><path class="cls-1" d="M71.3,47.86c-1-.12-1.91,.59-2.03,1.6-.12,1,.59,1.91,1.6,2.03,1,.12,1.91-.59,2.03-1.59,.12-1-.6-1.91-1.6-2.03Z"/><path class="cls-1" d="M102.94,54.29l-5.2-2.51c-.08-.04-.17-.05-.26-.07,1.39-3.15,1.79-6.64,1.12-10.08-.24-1.25-.63-2.43-1.12-3.55,.09-.02,.19-.02,.28-.08l2.52-1.52c.48-.29,.64-.92,.35-1.4-.29-.48-.92-.64-1.4-.35l-2.52,1.52s-.07,.06-.1,.1c-2.28-3.93-6.05-6.77-10.41-7.93l.87-5.45c.09-.56-.29-1.08-.85-1.17-.55-.09-1.08,.29-1.17,.85l-.85,5.37c-1.63-.23-3.31-.21-5.01,.06,.01-.12,.01-.23-.02-.35l-.73-2.85c-.14-.54-.69-.88-1.24-.73-.55,.14-.87,.7-.74,1.24l.74,2.85c.02,.1,.11,.16,.16,.24-4.46,1.23-8.06,4.15-10.24,7.94-.06-.07-.12-.14-.21-.19l-5.15-3.03c-.48-.28-1.11-.12-1.4,.36-.29,.49-.12,1.11,.36,1.39l5.16,3.03c.12,.07,.25,.09,.38,.11-1.34,3.06-1.8,6.54-1.11,10.06,.33,1.69,.9,3.3,1.69,4.77-.14,.02-.27,.06-.4,.14l-2.52,1.52c-.48,.29-.64,.92-.35,1.4,.19,.32,.53,.49,.88,.49,.18,0,.36-.05,.52-.15l2.52-1.52c.13-.08,.23-.18,.31-.3,1.2,1.76,2.73,3.3,4.55,4.52,1.73,1.17,3.63,1.95,5.6,2.42l-1.29,6.77c-.1,.55,.26,1.08,.81,1.19,.06,.01,.13,.02,.19,.02,.48,0,.91-.34,1-.83l1.29-6.79c.62,.07,1.25,.14,1.88,.14,.91,0,1.82-.09,2.73-.24-.01,.12-.01,.23,.02,.35l.74,2.85c.12,.46,.53,.77,.99,.77,.08,0,.17,0,.25-.03,.55-.14,.87-.7,.73-1.24l-.73-2.85c-.02-.09-.07-.17-.12-.25,3.91-1.08,7.28-3.48,9.57-6.88,.22-.32,.4-.65,.6-.99,.08,.07,.15,.15,.25,.19l5.2,2.51c.14,.07,.29,.1,.44,.1,.38,0,.74-.21,.92-.57,.24-.51,.03-1.12-.47-1.36Zm-18.2,5.33c-8.12,1.58-16.01-3.74-17.59-11.86-.77-3.93,.04-7.93,2.28-11.25,2.24-3.32,5.64-5.58,9.57-6.34,8.12-1.58,16.01,3.74,17.6,11.86,1.58,8.12-3.74,16.01-11.86,17.6Z"/><path class="cls-1" d="M83.74,48.9c-1.72,1.77-1.68,4.6,.08,6.32,.87,.85,1.99,1.27,3.12,1.27s2.33-.45,3.2-1.35c.83-.85,1.28-1.98,1.27-3.17-.02-1.19-.49-2.31-1.35-3.14-1.76-1.72-4.6-1.68-6.32,.08Zm4.94,4.82c-.46,.46-1.06,.72-1.71,.73h-.03c-.64,0-1.24-.24-1.7-.69-.46-.45-.72-1.06-.73-1.71,0-.65,.23-1.26,.69-1.72,.47-.49,1.1-.73,1.74-.73s1.23,.23,1.7,.69c.46,.45,.72,1.06,.73,1.71,0,.65-.23,1.26-.69,1.73Z"/><path class="cls-1" d="M90.91,41.16c-1.05,.01-1.89,.88-1.88,1.93,.01,1.05,.88,1.89,1.93,1.88,1.05-.02,1.89-.88,1.88-1.93-.01-1.05-.88-1.89-1.93-1.88Z"/><path class="cls-1" d="M78.91,53.3c-.6,0-1.09,.51-1.08,1.11,0,.6,.5,1.09,1.11,1.08,.61,0,1.09-.5,1.08-1.11,0-.61-.5-1.09-1.11-1.08Z"/><path class="cls-1" d="M83.17,34.72c.57-.01,1.02-.47,1.01-1.04,0-.57-.47-1.02-1.04-1.01-.56,0-1.02,.47-1.01,1.04,0,.56,.47,1.02,1.04,1.01Z"/></g><path class="cls-3" d="M109.03,72.26l-26.4-26.4,26.4-26.4c.5-.5,.5-1.31,0-1.8-.49-.5-1.31-.5-1.8,0l-26.4,26.4-26.4-26.4c-.5-.5-1.31-.5-1.8,0-.5,.5-.5,1.31,0,1.8l26.4,26.4-26.4,26.4c-.5,.5-.5,1.3,0,1.8,.25,.25,.57,.37,.9,.37s.65-.12,.9-.37l26.4-26.4,26.4,26.4c.25,.25,.57,.37,.9,.37s.65-.12,.9-.37c.5-.5,.5-1.3,0-1.8Z"/></g></g></g></svg>