<?xml version="1.0" encoding="UTF-8"?><svg id="Camada_2" xmlns="http://www.w3.org/2000/svg" viewBox="0 0 194.48 194.48"><defs><style>.cls-1{fill:#002554;}</style></defs><g id="Camada_1-2"><g><path class="cls-1" d="M136.69,53.86H57.79c-2.17,0-3.93,1.76-3.93,3.93v78.91c0,2.17,1.76,3.93,3.93,3.93h78.91c2.17,0,3.92-1.76,3.92-3.93V57.78c0-2.17-1.76-3.93-3.92-3.93Zm-3.93,78.91H61.71V61.71h71.06v71.06Z"/><path class="cls-1" d="M190.55,88.01c2.17,0,3.92-1.76,3.92-3.93s-1.76-3.92-3.92-3.92h-31.15v-18.45h31.15c2.17,0,3.92-1.76,3.92-3.93s-1.76-3.93-3.92-3.93h-31.15v-14.85c0-2.17-1.76-3.93-3.93-3.93h-14.86V3.92c0-2.17-1.76-3.92-3.92-3.92s-3.93,1.76-3.93,3.92v31.15h-18.45V3.92c0-2.17-1.76-3.92-3.93-3.92s-3.92,1.76-3.92,3.92v31.15h-18.45V3.92c0-2.17-1.76-3.92-3.93-3.92s-3.93,1.76-3.93,3.92v31.15h-18.45V3.92c0-2.17-1.76-3.92-3.93-3.92s-3.92,1.76-3.92,3.92v31.15h-14.86c-2.17,0-3.93,1.76-3.93,3.93v14.85H3.93c-2.17,0-3.93,1.76-3.93,3.93s1.76,3.93,3.93,3.93h31.15v18.45H3.93c-2.17,0-3.93,1.76-3.93,3.92s1.76,3.93,3.93,3.93h31.15v18.45H3.93c-2.17,0-3.93,1.76-3.93,3.93s1.76,3.93,3.93,3.93h31.15v18.45H3.93c-2.17,0-3.93,1.76-3.93,3.93s1.76,3.92,3.93,3.92h31.15v14.86c0,2.17,1.76,3.92,3.93,3.92h14.86v31.15c0,2.17,1.76,3.93,3.93,3.93s3.93-1.76,3.93-3.93v-31.15h18.45v31.15c0,2.17,1.76,3.93,3.93,3.93s3.93-1.76,3.93-3.93v-31.15h18.45v31.15c0,2.17,1.76,3.93,3.92,3.93s3.93-1.76,3.93-3.93v-31.15h18.45v31.15c0,2.17,1.76,3.93,3.93,3.93s3.92-1.76,3.92-3.93v-31.15h14.86c2.17,0,3.93-1.76,3.93-3.92v-14.86h31.15c2.17,0,3.92-1.76,3.92-3.93s-1.76-3.93-3.92-3.93h-31.15v-18.45h31.15c2.17,0,3.92-1.76,3.92-3.93s-1.76-3.93-3.92-3.93h-31.15v-18.45h31.15Zm-39,63.53H42.93V42.93h108.62v108.62Z"/></g></g></svg>