<svg width="61" height="67" viewBox="0 0 61 67" fill="none" xmlns="http://www.w3.org/2000/svg">
<path d="M8.82231 67C6.35767 67 4.27112 66.1485 2.56267 64.4456C0.854224 62.7427 0 60.6629 0 58.2062V47.7375H10.6708V0L15.7121 5.025L20.7534 0L25.7107 5.025L30.7521 0L35.7934 5.025L40.8347 0L45.876 5.025L50.9174 0L55.9587 5.025L61 0V58.2062C61 60.6629 60.1458 62.7427 58.4373 64.4456C56.7289 66.1485 54.6423 67 52.1777 67H8.82231ZM52.1777 61.975C53.298 61.975 54.2082 61.626 54.9084 60.9281C55.6086 60.2302 55.9587 59.3229 55.9587 58.2062V8.375H15.7121V47.7375H48.3967V58.2062C48.3967 59.3229 48.7468 60.2302 49.447 60.9281C50.1472 61.626 51.0574 61.975 52.1777 61.975ZM20.1653 21.6075V16.5825H40.3306V21.6075H20.1653ZM20.1653 32.83V27.805H40.3306V32.83H20.1653ZM48.1446 21.6075C47.4724 21.6075 46.8843 21.3563 46.3802 20.8538C45.876 20.3513 45.624 19.765 45.624 19.095C45.624 18.425 45.876 17.8388 46.3802 17.3363C46.8843 16.8337 47.4724 16.5825 48.1446 16.5825C48.8168 16.5825 49.405 16.8337 49.9091 17.3363C50.4132 17.8388 50.6653 18.425 50.6653 19.095C50.6653 19.765 50.4132 20.3513 49.9091 20.8538C49.405 21.3563 48.8168 21.6075 48.1446 21.6075ZM48.1446 32.4113C47.4724 32.4113 46.8843 32.16 46.3802 31.6575C45.876 31.155 45.624 30.5688 45.624 29.8988C45.624 29.2288 45.876 28.6425 46.3802 28.14C46.8843 27.6375 47.4724 27.3862 48.1446 27.3862C48.8168 27.3862 49.405 27.6375 49.9091 28.14C50.4132 28.6425 50.6653 29.2288 50.6653 29.8988C50.6653 30.5688 50.4132 31.155 49.9091 31.6575C49.405 32.16 48.8168 32.4113 48.1446 32.4113ZM8.73829 61.975H43.3554V52.7625H5.04132V58.2062C5.04132 59.3229 5.39141 60.2302 6.0916 60.9281C6.79178 61.626 7.67401 61.975 8.73829 61.975ZM5.04132 61.975V52.7625V61.975Z" fill="#495057"/>
</svg>
