<svg width="61" height="60" viewBox="0 0 61 60" fill="none" xmlns="http://www.w3.org/2000/svg">
<path d="M24.2596 60H4.68031C3.43223 60 2.34015 59.5396 1.40409 58.6189C0.468031 57.6982 0 56.624 0 55.3964V10.7417C0 9.51407 0.403027 8.4399 1.20908 7.51918C2.01513 6.59847 2.70418 6.13811 3.27622 6.13811H19.0332C19.3973 4.34783 20.2943 2.87724 21.7244 1.72634C23.1545 0.575448 24.8056 0 26.6778 0C28.5499 0 30.201 0.575448 31.6311 1.72634C33.0612 2.87724 33.9582 4.34783 34.3223 6.13811H50.0793C51.3274 6.13811 52.4194 6.59847 53.3555 7.51918C54.2916 8.4399 54.7596 9.51407 54.7596 10.7417V26.3171H50.0793V10.7417H41.8107V20.7161H12.9488V10.7417H4.68031V55.3964H24.2596V60ZM39.0026 58.0818L26.5217 45.8056L29.876 42.5064L39.0026 51.4834L57.6458 33.1458L61 36.445L39.0026 58.0818ZM28.0818 10.4348C28.9659 10.4348 29.7069 10.1407 30.305 9.55243C30.903 8.9642 31.202 8.2353 31.202 7.36573C31.202 6.49616 30.903 5.76726 30.305 5.17903C29.7069 4.59079 28.9659 4.29668 28.0818 4.29668C27.1978 4.29668 26.4567 4.59079 25.8587 5.17903C25.2607 5.76726 24.9616 6.49616 24.9616 7.36573C24.9616 8.2353 25.2607 8.9642 25.8587 9.55243C26.4567 10.1407 27.1978 10.4348 28.0818 10.4348Z" fill="#495057"/>
</svg>
