<svg width="61" height="76" viewBox="0 0 61 76" fill="none" xmlns="http://www.w3.org/2000/svg">
<path d="M20.0156 40.85V23.275L30.5 16.34L40.9844 23.275V40.85H35.2656V29.45H25.7344V40.85H20.0156ZM30.5 68.495C38.951 60.8317 45.194 53.8808 49.2289 47.6425C53.2638 41.4042 55.2812 35.91 55.2812 31.16C55.2812 23.6867 52.8825 17.575 48.0852 12.825C43.2878 8.075 37.426 5.7 30.5 5.7C23.574 5.7 17.7122 8.075 12.9148 12.825C8.11745 17.575 5.71875 23.6867 5.71875 31.16C5.71875 35.91 7.78385 41.4042 11.9141 47.6425C16.0443 53.8808 22.2396 60.8317 30.5 68.495ZM30.5 76C20.2698 67.3233 12.6289 59.2642 7.57734 51.8225C2.52578 44.3808 0 37.4933 0 31.16C0 21.66 3.06588 14.0917 9.19766 8.455C15.3294 2.81833 22.4302 0 30.5 0C38.5698 0 45.6706 2.81833 51.8023 8.455C57.9341 14.0917 61 21.66 61 31.16C61 37.4933 58.4742 44.3808 53.4227 51.8225C48.3711 59.2642 40.7302 67.3233 30.5 76Z" fill="#495057"/>
</svg>
